<?xml version="1.0" encoding="utf-8"?>
<!-- Generator: Adobe Illustrator 12.0.0, SVG Export Plug-In . SVG Version: 6.00 Build 51448)  -->
<!DOCTYPE svg PUBLIC "-//W3C//DTD SVG 1.1//EN" "http://www.w3.org/Graphics/SVG/1.1/DTD/svg11.dtd" [
	<!ENTITY ns_svg "http://www.w3.org/2000/svg">
	<!ENTITY ns_xlink "http://www.w3.org/1999/xlink">
]>
<svg  version="1.1" id="Layer_1" xmlns="&ns_svg;" xmlns:xlink="&ns_xlink;" width="884.167" height="882.494"
	 viewBox="0 0 884.167 882.494" overflow="visible" enable-background="new 0 0 884.167 882.494" xml:space="preserve">
<g>
	<path fill-rule="evenodd" clip-rule="evenodd" fill="#FFFFFF" d="M0,441.247C0,197.557,197.931,0,442.083,0
		c244.183,0,442.083,197.557,442.083,441.247c0,243.72-197.9,441.247-442.083,441.247C197.931,882.494,0,684.966,0,441.247"/>
	<path fill-rule="evenodd" clip-rule="evenodd" fill="#800000" d="M49.677,592.43c0.952,2.438,1.698,4.222,2.264,5.411l22.216-8.562
		l-1.638-4.251c-1.072-2.763-2.323-4.874-3.723-6.42c-1.429-1.516-3.157-2.407-5.183-2.734c-2.054-0.297-4.467,0.089-7.236,1.158
		c-2.084,0.803-3.752,1.754-4.944,2.855c-1.191,1.099-2.025,2.317-2.501,3.626c-0.477,1.337-0.626,2.734-0.448,4.25
		C48.664,589.28,49.051,590.826,49.677,592.43L49.677,592.43z M52.863,610.295l-7.028-18.192
		c-2.204-5.705-2.739-10.403-1.638-14.029c1.102-3.657,3.901-6.332,8.398-8.057c2.531-0.98,5.003-1.426,7.356-1.308
		c2.383,0.091,4.527,0.684,6.462,1.813c1.906,1.101,3.575,2.646,4.974,4.638c1.43,1.99,2.591,4.19,3.544,6.6
		c1.042,2.705,1.788,4.845,2.264,6.36l12.21-4.696c1.43-0.565,2.561-1.069,3.365-1.575c0.774-0.477,1.371-0.98,1.758-1.516
		c0.357-0.506,0.595-1.101,0.655-1.785c0.059-0.653,0-1.665-0.208-2.941l1.816-0.714l6.195,16.111l-1.787,0.684
		c-0.982-1.368-1.817-2.199-2.472-2.526c-0.685-0.357-1.489-0.417-2.442-0.239c-0.923,0.179-2.323,0.624-4.14,1.309l-31.748,12.246
		c-1.698,0.626-2.889,1.161-3.633,1.576c-0.715,0.445-1.251,0.862-1.55,1.308c-0.327,0.446-0.536,0.952-0.595,1.516
		c-0.089,0.566-0.06,1.458,0.059,2.706L52.863,610.295z"/>
	<path fill-rule="evenodd" clip-rule="evenodd" fill="#800000" d="M34.131,545.435c0.595,2.289,1.637,4.102,3.127,5.44
		c1.488,1.366,3.365,2.347,5.599,2.913c2.264,0.563,4.854,0.742,7.772,0.506c2.919-0.239,6.076-0.773,9.53-1.665
		c7.774-2.021,13.432-4.698,16.887-7.996c3.485-3.33,4.646-7.165,3.514-11.533c-0.714-2.766-2.204-4.877-4.467-6.363
		c-2.264-1.455-5.211-2.229-8.875-2.317c-3.663-0.089-7.744,0.445-12.3,1.634c-5.539,1.428-9.977,3.182-13.342,5.262
		c-3.335,2.052-5.599,4.281-6.731,6.659C33.684,540.352,33.475,542.848,34.131,545.435L34.131,545.435z M30.705,546.03
		c-1.161-4.519-1.161-8.562,0.03-12.159c1.191-3.597,3.543-6.688,6.998-9.244c3.485-2.556,7.982-4.549,13.552-6.004
		c5.956-1.516,11.198-1.933,15.754-1.219c4.527,0.713,8.249,2.438,11.109,5.144c2.888,2.703,4.884,6.211,5.985,10.521
		c0.804,3.033,1.013,5.945,0.656,8.709c-0.358,2.735-1.371,5.291-3.009,7.64c-1.668,2.318-4.021,4.399-7.059,6.243
		c-3.067,1.813-6.879,3.329-11.465,4.518c-5.659,1.457-10.751,1.874-15.278,1.189c-4.498-0.684-8.25-2.349-11.198-4.994
		C33.832,553.699,31.807,550.251,30.705,546.03L30.705,546.03z"/>
	<path fill-rule="evenodd" clip-rule="evenodd" fill="#800000" d="M24.66,515.56l-2.502-16.349l1.906-0.297
		c0.477,1.099,0.894,1.872,1.192,2.318c0.328,0.445,0.714,0.773,1.191,1.04c0.447,0.238,1.132,0.357,1.995,0.386
		c0.894,0.031,2.264-0.089,4.14-0.386l39.789-6.063l-1.549-10.167c-0.178-1.128-0.386-2.051-0.625-2.764
		c-0.238-0.742-0.536-1.337-0.893-1.843c-0.358-0.476-0.805-0.892-1.34-1.248c-0.566-0.357-1.251-0.685-2.085-0.952
		c-0.833-0.268-1.876-0.475-3.097-0.653c-1.251-0.178-3.097-0.327-5.51-0.506l-0.625-3.894l15.784-1.636l5.331,34.928l-1.906,0.299
		c-0.655-1.547-1.28-2.559-1.876-3.033c-0.596-0.446-1.37-0.714-2.323-0.742c-0.954,0-2.413,0.118-4.319,0.414l-33.653,5.144
		c-1.787,0.268-3.098,0.535-3.873,0.773c-0.804,0.268-1.399,0.564-1.817,0.921c-0.417,0.386-0.714,0.833-0.922,1.368
		c-0.179,0.535-0.357,1.427-0.507,2.646L24.66,515.56z"/>
	<path fill-rule="evenodd" clip-rule="evenodd" fill="#800000" d="M19.984,485.24l-0.968-16.706l1.92-0.103
		c0.432,2.437,1.564,3.61,3.41,3.492c0.76-0.044,1.594-0.267,2.517-0.668c0.923-0.417,2.219-1.13,3.902-2.142l14.503-8.71
		l-14.117-6.924c-1.92-0.952-3.484-1.592-4.706-1.964c-1.221-0.356-2.323-0.504-3.321-0.445c-0.938,0.044-1.667,0.372-2.173,0.967
		c-0.507,0.595-0.774,1.442-0.819,2.541l-1.922,0.12l-0.863-14.863l1.921-0.12c0.462,1.055,1.057,1.962,1.802,2.736
		c0.729,0.771,1.727,1.529,2.948,2.303c1.221,0.773,3.291,1.888,6.18,3.345l19.269,9.824l12.732-0.744
		c1.488-0.089,2.695-0.236,3.603-0.445c0.909-0.208,1.624-0.52,2.145-0.907c0.537-0.401,0.938-0.905,1.221-1.531
		c0.269-0.624,0.521-1.573,0.729-2.882l1.936-0.104l1.043,17.925l-1.936,0.103c-0.328-1.232-0.67-2.14-0.999-2.734
		c-0.342-0.579-0.803-1.039-1.384-1.366c-0.581-0.344-1.34-0.566-2.263-0.685c-0.924-0.118-2.16-0.134-3.679-0.044l-12.568,0.744
		L30.527,477.23c-2.368,1.455-4.05,2.557-5.048,3.285c-1.013,0.742-1.802,1.471-2.368,2.184c-0.566,0.714-0.953,1.531-1.191,2.438
		L19.984,485.24z"/>
	<path fill-rule="evenodd" clip-rule="evenodd" fill="#800000" d="M17.646,437.16l2.189-42.448l13.67,0.699l-0.194,3.849
		c-2.278,0.461-4.095,0.936-5.436,1.428c-1.34,0.488-2.367,1.039-3.082,1.634c-0.714,0.595-1.221,1.234-1.549,1.948
		c-0.328,0.698-0.521,1.768-0.595,3.209l-0.269,4.979l40.25,2.066c1.548,0.076,2.785,0.06,3.708-0.06
		c0.922-0.132,1.667-0.356,2.218-0.682c0.566-0.328,1.012-0.773,1.34-1.368c0.328-0.58,0.67-1.5,1.028-2.779l1.92,0.105
		l-0.923,17.922l-1.921-0.089c-0.133-0.803-0.297-1.5-0.477-2.108c-0.178-0.61-0.417-1.116-0.7-1.516
		c-0.283-0.388-0.641-0.729-1.102-0.996c-0.462-0.283-1.102-0.506-1.906-0.685c-0.804-0.193-1.98-0.327-3.559-0.4l-40.25-2.066
		l-0.253,4.935c-0.06,1.232,0,2.26,0.193,3.062c0.194,0.818,0.655,1.574,1.355,2.287c0.714,0.729,1.742,1.399,3.097,2.039
		c1.34,0.624,3.052,1.248,5.122,1.856l-0.193,3.88L17.646,437.16z"/>
	<path fill-rule="evenodd" clip-rule="evenodd" fill="#800000" d="M21.027,386.879l5.882-36.265l11.734,1.902l-0.626,3.805
		c-1.325,0.179-2.501,0.401-3.529,0.654c-1.027,0.268-1.906,0.564-2.62,0.892c-0.715,0.342-1.311,0.743-1.787,1.204
		c-0.477,0.476-0.849,1.055-1.102,1.754c-0.269,0.699-0.477,1.561-0.641,2.556l-1.98,12.262l20.356,3.285l1.34-8.294
		c0.193-1.145,0.178-2.05-0.045-2.749c-0.224-0.699-0.685-1.323-1.385-1.888c-0.715-0.55-1.861-1.145-3.456-1.798l0.582-3.656
		l14.921,2.423l-0.596,3.641c-1.609,0.104-2.844,0.313-3.708,0.625c-0.863,0.312-1.504,0.757-1.935,1.308
		c-0.447,0.549-0.76,1.426-0.954,2.646l-1.34,8.308l22.412,3.611L74.5,371.05c0.208-1.264,0.267-2.319,0.178-3.137
		c-0.089-0.832-0.357-1.561-0.804-2.214c-0.431-0.654-1.042-1.278-1.832-1.857c-0.774-0.58-1.607-1.085-2.472-1.531
		c-0.878-0.446-2.159-1.07-3.827-1.873l0.625-3.834l13.506,2.943l-5.822,35.909l-1.906-0.312c-0.149-1.665-0.432-2.825-0.849-3.449
		c-0.417-0.624-1.087-1.084-1.981-1.412c-0.908-0.312-2.323-0.624-4.244-0.936l-33.608-5.44c-1.787-0.282-3.097-0.431-3.931-0.431
		s-1.504,0.104-2.011,0.327c-0.491,0.223-0.922,0.565-1.28,1.011c-0.343,0.446-0.79,1.233-1.31,2.378L21.027,386.879z"/>
	<path fill-rule="evenodd" clip-rule="evenodd" fill="#800000" d="M34.577,319c0.625-2.289,1.325-4.385,2.099-6.272
		c0.774-1.872,1.833-3.968,3.172-6.302l10.528,2.869l-1.027,3.761c-2.368,0-4.333,0.297-5.897,0.877
		c-1.563,0.579-2.784,1.412-3.677,2.497c-0.894,1.084-1.579,2.496-2.056,4.235c-0.715,2.616-0.477,5.157,0.7,7.669
		s3.351,4.816,6.508,6.926c3.157,2.111,7.207,3.834,12.151,5.172c4.959,1.353,9.322,2.037,13.089,2.021
		c3.768,0,6.805-0.698,9.098-2.081c2.293-1.382,3.812-3.433,4.557-6.168c0.566-2.066,0.744-3.85,0.506-5.321
		c-0.238-1.472-0.879-2.839-1.92-4.087c-1.057-1.249-2.71-2.616-5.004-4.102l1.028-3.761l10.855,2.958
		c-0.015,2.556-0.208,5.113-0.566,7.684c-0.372,2.571-0.953,5.351-1.771,8.338c-1.758,6.421-5.257,10.671-10.513,12.767
		c-5.242,2.111-12.182,1.977-20.818-0.371c-5.42-1.472-9.933-3.627-13.535-6.436c-3.619-2.809-6.076-6.182-7.401-10.091
		C33.356,327.858,33.326,323.608,34.577,319L34.577,319z"/>
	<path fill-rule="evenodd" clip-rule="evenodd" fill="#800000" d="M41.814,296.87l6.195-15.339l1.787,0.728
		c-0.164,1.174-0.208,2.051-0.135,2.631c0.075,0.579,0.269,1.1,0.551,1.531c0.283,0.446,0.804,0.892,1.564,1.353
		c0.744,0.46,1.951,1.025,3.633,1.694l12.926,5.217l8.19-20.258L63.6,269.225c-2.115-0.863-3.604-1.337-4.467-1.442
		c-0.863-0.104-1.593,0-2.204,0.312c-0.61,0.327-1.4,1.115-2.368,2.394l-1.801-0.713l6.179-15.265l1.787,0.714
		c-0.208,1.501-0.208,2.601,0,3.299c0.208,0.713,0.7,1.337,1.475,1.872c0.774,0.535,2.159,1.205,4.154,2.007l31.568,12.723
		c1.415,0.564,2.488,0.951,3.217,1.174c0.744,0.208,1.354,0.312,1.846,0.312c0.492,0,0.924-0.059,1.296-0.193
		c0.357-0.149,0.744-0.387,1.146-0.759c0.402-0.356,0.909-0.966,1.548-1.813l1.788,0.729l-6.18,15.264l-1.787-0.729
		c0.194-1.471,0.208-2.556,0-3.255c-0.194-0.698-0.669-1.322-1.444-1.872c-0.775-0.55-2.16-1.233-4.185-2.051l-15.293-6.153
		l-8.19,20.258l15.293,6.153c1.639,0.654,2.845,1.084,3.648,1.278c0.804,0.192,1.459,0.253,2.011,0.178
		c0.536-0.089,1.057-0.312,1.548-0.699c0.491-0.372,1.117-1.07,1.861-2.066l1.787,0.713l-6.209,15.339l-1.787-0.713
		c0.223-1.665,0.194-2.854-0.075-3.552c-0.267-0.699-0.804-1.308-1.623-1.813c-0.804-0.506-2.114-1.13-3.916-1.858l-31.57-12.708
		c-1.682-0.684-2.918-1.115-3.737-1.293c-0.819-0.193-1.489-0.238-2.04-0.12c-0.536,0.105-1.028,0.342-1.459,0.699
		c-0.447,0.357-1.058,1.026-1.817,2.021L41.814,296.87z"/>
	<path fill-rule="evenodd" clip-rule="evenodd" fill="#800000" d="M63.763,244.984l6.046-10.716l37.793-0.996
		c1.846-0.059,3.424-0.074,4.78-0.044c1.34,0.016,2.814,0.089,4.437,0.208l0.253-0.445c-1.459-0.669-4.288-2.125-8.488-4.37
		c-4.199-2.229-7.982-4.295-11.317-6.168l-7.192-4.058c-1.578-0.892-2.755-1.486-3.544-1.813c-0.774-0.328-1.429-0.476-1.951-0.446
		c-0.536,0.015-1.027,0.179-1.504,0.46c-0.491,0.283-1.176,0.877-2.054,1.754l-1.683-0.952l6.955-12.321l1.682,0.952
		c-0.297,1.173-0.461,2.051-0.477,2.601c0,0.549,0.105,1.055,0.313,1.531c0.224,0.46,0.655,0.966,1.311,1.516
		c0.656,0.55,1.817,1.293,3.484,2.229l38.434,21.625l-2.413,4.28l-42.797,1.041c-2.65,0.074-4.586,0.104-5.777,0.089
		c-1.207-0.016-2.368-0.06-3.499-0.119l-0.329,0.579c1.847,0.833,5.093,2.512,9.74,5.024c4.646,2.526,9.246,5.068,13.818,7.654
		l6.999,3.924c1.534,0.861,2.68,1.442,3.44,1.738c0.774,0.297,1.429,0.446,1.979,0.431c0.537,0,1.087-0.164,1.624-0.476
		c0.537-0.313,1.236-0.922,2.1-1.813l1.683,0.937l-7.058,12.5l-1.668-0.952c0.432-1.62,0.551-2.793,0.387-3.522
		c-0.178-0.729-0.641-1.397-1.37-2.007c-0.744-0.61-1.965-1.396-3.648-2.348l-29.663-16.691c-1.578-0.892-2.755-1.471-3.543-1.769
		c-0.774-0.282-1.445-0.416-1.996-0.371c-0.551,0.029-1.057,0.193-1.549,0.491c-0.491,0.312-1.176,0.891-2.054,1.783L63.763,244.984
		z"/>
	<path fill-rule="evenodd" clip-rule="evenodd" fill="#800000" d="M91.803,197.898l9.471-13.629l1.579,1.1
		c-0.417,1.114-0.655,1.962-0.715,2.542c-0.044,0.594,0.016,1.13,0.194,1.621c0.194,0.49,0.596,1.04,1.221,1.665
		c0.626,0.608,1.684,1.426,3.172,2.452l27.966,19.381c1.444,1.011,2.531,1.695,3.275,2.051c0.729,0.371,1.37,0.58,1.921,0.609
		c0.536,0.044,1.102-0.06,1.667-0.327c0.566-0.253,1.31-0.788,2.264-1.605l1.579,1.1l-9.471,13.614l-1.579-1.1
		c0.582-1.56,0.819-2.72,0.715-3.463c-0.104-0.742-0.507-1.456-1.176-2.14c-0.685-0.668-1.817-1.561-3.41-2.675l-27.966-19.381
		c-1.488-1.025-2.605-1.724-3.365-2.08c-0.744-0.373-1.399-0.551-1.951-0.565c-0.55-0.014-1.086,0.104-1.593,0.357
		c-0.506,0.253-1.251,0.773-2.219,1.561L91.803,197.898z"/>
	<path fill-rule="evenodd" clip-rule="evenodd" fill="#800000" d="M120.394,159.107c1.52-1.843,3.008-3.463,4.497-4.861
		c1.474-1.397,3.306-2.883,5.48-4.444l8.414,6.911l-2.472,3.003c-2.174-0.966-4.081-1.502-5.734-1.605
		c-1.667-0.104-3.127,0.148-4.393,0.773c-1.265,0.625-2.472,1.635-3.618,3.032c-1.712,2.081-2.561,4.503-2.517,7.268
		c0.045,2.779,1.087,5.767,3.097,8.992c2.025,3.21,5.004,6.451,8.95,9.691c3.976,3.255,7.684,5.663,11.124,7.193
		c3.44,1.546,6.492,2.155,9.143,1.829c2.666-0.328,4.899-1.576,6.702-3.761c1.369-1.649,2.248-3.21,2.636-4.651
		c0.387-1.442,0.372-2.943-0.075-4.519c-0.432-1.562-1.4-3.494-2.859-5.782l2.472-3.002l8.682,7.134
		c-1.057,2.319-2.278,4.579-3.663,6.778c-1.4,2.2-3.083,4.488-5.047,6.881c-4.23,5.128-9.174,7.58-14.832,7.342
		c-5.644-0.223-11.927-3.18-18.837-8.859c-4.333-3.567-7.564-7.371-9.708-11.414c-2.129-4.042-2.994-8.13-2.591-12.232
		C115.644,166.687,117.355,162.792,120.394,159.107L120.394,159.107z"/>
	<path fill-rule="evenodd" clip-rule="evenodd" fill="#800000" d="M146.662,131.15l12.33-10.984l1.28,1.427
		c-0.848,1.263-1.34,2.244-1.459,2.972c-0.134,0.729,0.03,1.501,0.492,2.319c0.461,0.832,1.399,2.036,2.829,3.642l18.569,20.733
		c1.698,1.903,3.321,3.315,4.885,4.237c1.548,0.936,3.008,1.44,4.363,1.501c1.37,0.073,2.695-0.179,3.976-0.744
		c1.295-0.565,2.68-1.516,4.17-2.839c1.37-1.234,2.353-2.541,2.963-3.938c0.611-1.413,0.819-2.914,0.641-4.504
		c-0.179-1.59-0.774-3.225-1.802-4.875c-1.027-1.649-2.606-3.67-4.75-6.079l-16.395-18.311c-1.519-1.695-2.65-2.779-3.365-3.255
		c-0.73-0.491-1.429-0.714-2.114-0.714c-0.671,0.016-1.757,0.387-3.232,1.146l-1.28-1.442l11.704-10.435l1.295,1.428
		c-0.878,1.308-1.37,2.319-1.474,3.046c-0.105,0.729,0.059,1.501,0.506,2.303c0.432,0.804,1.37,2.007,2.799,3.613l16.857,18.831
		c1.906,2.125,3.365,4.132,4.348,6.034c0.938,1.799,1.548,3.583,1.817,5.38c0.223,1.636,0.149,3.256-0.238,4.875
		c-0.372,1.62-1.102,3.285-2.189,4.979c-1.071,1.709-2.591,3.418-4.556,5.172c-2.368,2.11-4.631,3.656-6.791,4.638
		c-2.173,0.98-4.333,1.367-6.522,1.144c-2.173-0.208-4.243-0.907-6.194-2.11c-1.951-1.189-4.05-3.046-6.298-5.574l-17.259-19.277
		c-1.37-1.516-2.338-2.497-2.919-2.958c-0.58-0.446-1.102-0.742-1.563-0.892c-0.462-0.148-0.968-0.178-1.534-0.089
		c-0.551,0.089-1.415,0.446-2.607,1.041L146.662,131.15z"/>
	<path fill-rule="evenodd" clip-rule="evenodd" fill="#800000" d="M187.91,95.524l10.171-6.941l34.353,15.77
		c1.683,0.758,3.112,1.441,4.304,2.05c1.206,0.624,2.501,1.337,3.886,2.155l0.418-0.282c-1.013-1.249-2.904-3.805-5.674-7.669
		c-2.785-3.865-5.241-7.372-7.416-10.522l-4.661-6.808c-1.027-1.501-1.817-2.556-2.367-3.196c-0.566-0.624-1.087-1.054-1.564-1.263
		c-0.477-0.208-0.997-0.297-1.548-0.238c-0.566,0.045-1.429,0.269-2.621,0.654l-1.086-1.576l11.689-7.997l1.087,1.591
		c-0.79,0.921-1.325,1.635-1.578,2.125c-0.254,0.49-0.373,0.996-0.388,1.517c-0.015,0.505,0.149,1.159,0.491,1.932
		c0.343,0.787,1.057,1.961,2.145,3.537l24.912,36.354l-4.065,2.765l-38.851-17.925c-2.412-1.114-4.154-1.933-5.227-2.483
		c-1.072-0.535-2.099-1.084-3.082-1.649l-0.551,0.386c1.296,1.56,3.455,4.489,6.507,8.799c3.053,4.31,6.062,8.635,9.025,12.96
		l4.526,6.614c0.998,1.442,1.772,2.467,2.324,3.077c0.565,0.595,1.086,1.025,1.578,1.248c0.492,0.238,1.058,0.328,1.683,0.283
		c0.611-0.03,1.519-0.267,2.681-0.684l1.102,1.576l-11.868,8.1l-1.087-1.59c1.102-1.263,1.742-2.259,1.906-2.987
		c0.164-0.728,0.059-1.531-0.343-2.408c-0.387-0.876-1.132-2.111-2.218-3.715l-19.224-28.046c-1.028-1.486-1.832-2.542-2.397-3.151
		c-0.582-0.594-1.117-1.011-1.623-1.218c-0.507-0.208-1.058-0.283-1.623-0.223c-0.566,0.044-1.445,0.268-2.636,0.669L187.91,95.524z
		"/>
	<path fill-rule="evenodd" clip-rule="evenodd" fill="#800000" d="M233.982,65.694l14.533-8.025l0.938,1.679
		c-0.879,0.818-1.459,1.471-1.772,1.977c-0.312,0.491-0.491,1.011-0.55,1.531c-0.045,0.521,0.074,1.189,0.357,2.021
		c0.297,0.833,0.878,2.036,1.757,3.611l16.469,29.74c0.849,1.531,1.519,2.631,2.025,3.285c0.491,0.654,0.982,1.115,1.444,1.397
		c0.477,0.282,1.013,0.43,1.639,0.446c0.625,0.015,1.548-0.134,2.755-0.446l0.923,1.694l-14.534,8.011l-0.922-1.679
		c1.221-1.159,1.935-2.081,2.173-2.793c0.238-0.714,0.208-1.531-0.104-2.438c-0.313-0.906-0.938-2.214-1.877-3.909l-16.469-29.74
		c-0.878-1.576-1.563-2.69-2.084-3.358c-0.507-0.654-1.013-1.115-1.504-1.368c-0.477-0.252-1.013-0.386-1.578-0.386
		c-0.566,0-1.459,0.148-2.681,0.43L233.982,65.694z"/>
	<path fill-rule="evenodd" clip-rule="evenodd" fill="#800000" d="M253.117,54.859l16.261-7.208l0.774,1.754
		c-1.013,0.683-1.742,1.292-2.189,1.827c-0.447,0.551-0.7,1.145-0.759,1.799c-0.044,0.654,0.12,1.427,0.521,2.319
		c0.356,0.802,0.848,1.65,1.458,2.497c0.611,0.861,1.355,1.798,2.249,2.809l21.473,25.549l-2.844-34.08
		c-0.059-0.521-0.119-1.055-0.208-1.62c-0.075-0.58-0.164-1.114-0.269-1.65c-0.104-0.521-0.223-0.966-0.342-1.352
		c-0.134-0.372-0.269-0.714-0.402-1.026c-0.64-1.426-1.429-2.333-2.383-2.705c-0.952-0.356-2.278-0.312-3.96,0.148l-0.79-1.754
		l15.099-6.703l0.79,1.754c-0.879,0.668-1.519,1.367-1.906,2.095c-0.402,0.713-0.67,1.709-0.804,2.973
		c-0.149,1.278-0.149,3.196,0,5.767l2.799,46.387l-4.706,2.096l-29.961-34.631c-1.622-1.888-2.873-3.196-3.767-3.894
		c-0.879-0.714-1.728-1.174-2.502-1.383c-0.79-0.208-1.728-0.208-2.844,0L253.117,54.859z"/>
	<path fill-rule="evenodd" clip-rule="evenodd" fill="#800000" d="M301.975,34.11l35.083-11.073l3.588,11.326l-3.677,1.159
		c-0.775-1.114-1.504-2.066-2.189-2.854c-0.701-0.802-1.356-1.442-1.981-1.932c-0.61-0.49-1.251-0.847-1.876-1.055
		c-0.626-0.223-1.326-0.282-2.055-0.193c-0.744,0.075-1.608,0.268-2.591,0.58l-11.853,3.745l6.209,19.62l8.026-2.527
		c1.102-0.342,1.921-0.773,2.442-1.293c0.536-0.506,0.879-1.19,1.057-2.082c0.179-0.877,0.194-2.169,0.075-3.893l3.529-1.1
		l4.542,14.372l-3.529,1.115c-0.819-1.383-1.564-2.393-2.234-3.018c-0.67-0.624-1.34-1.011-2.041-1.159
		c-0.684-0.134-1.623-0.015-2.799,0.356l-8.025,2.526l6.834,21.611l11.674-3.671c1.236-0.386,2.189-0.817,2.889-1.263
		c0.7-0.446,1.237-1.026,1.624-1.709c0.387-0.684,0.67-1.501,0.834-2.467c0.164-0.952,0.253-1.917,0.253-2.898
		c0.015-0.982,0-2.394-0.044-4.251l3.723-1.174l3.439,13.377l-34.755,10.954l-0.582-1.829c1.43-0.892,2.324-1.665,2.696-2.318
		c0.372-0.654,0.506-1.458,0.372-2.408c-0.119-0.951-0.477-2.349-1.057-4.192l-10.245-32.401c-0.551-1.724-1.013-2.958-1.385-3.715
		c-0.372-0.743-0.774-1.292-1.207-1.635c-0.417-0.342-0.908-0.579-1.474-0.684c-0.551-0.118-1.459-0.148-2.71-0.118L301.975,34.11z"
		/>
	<path fill-rule="evenodd" clip-rule="evenodd" fill="#800000" d="M365.097,20.719c-2.323,0.447-4.199,0.862-5.613,1.249
		l4.437,22.904l4.363-0.848c2.248-0.43,4.035-0.936,5.361-1.53c1.325-0.595,2.501-1.457,3.514-2.586
		c0.998-1.114,1.713-2.556,2.1-4.295c0.402-1.754,0.372-3.79-0.075-6.138c-0.476-2.438-1.295-4.385-2.442-5.841
		c-1.146-1.456-2.666-2.452-4.526-2.973C370.354,20.139,367.971,20.155,365.097,20.719L365.097,20.719z M347.005,20.69l19.135-3.701
		c6.016-1.16,10.736-0.937,14.161,0.669c3.41,1.604,5.554,4.711,6.448,9.319c0.685,3.522,0.297,6.703-1.176,9.557
		c-1.459,2.839-4.006,5.335-7.625,7.476l0.059,0.297c1.698,0.342,3.217,0.996,4.572,1.977c1.356,0.981,2.949,2.601,4.811,4.86
		l4.706,5.648c1.354,1.665,2.501,2.913,3.41,3.745c0.908,0.833,1.787,1.442,2.636,1.813c0.849,0.372,1.906,0.535,3.186,0.506
		l0.372,1.888l-10.706,2.066c-1.251-1.174-2.458-2.453-3.634-3.864c-1.191-1.397-2.353-2.824-3.529-4.281l-4.646-5.781
		c-1.399-1.754-2.531-3.032-3.365-3.834c-0.833-0.788-1.563-1.323-2.189-1.59c-0.625-0.267-1.266-0.401-1.935-0.431
		c-0.655-0.015-1.608,0.089-2.874,0.342l-4.259,0.817l2.546,13.109c0.356,1.857,0.685,3.181,0.997,3.998
		c0.298,0.802,0.641,1.397,0.998,1.769c0.372,0.372,0.819,0.64,1.37,0.818c0.536,0.164,1.43,0.312,2.681,0.417l0.372,1.887
		l-16.306,3.151l-0.372-1.888c1.519-0.713,2.501-1.382,2.948-1.991c0.432-0.61,0.656-1.383,0.64-2.349
		c-0.014-0.951-0.193-2.378-0.565-4.28l-6.477-33.367c-0.343-1.769-0.656-3.047-0.939-3.834c-0.283-0.788-0.625-1.382-1.013-1.769
		c-0.372-0.401-0.833-0.684-1.385-0.848c-0.536-0.178-1.429-0.326-2.68-0.43L347.005,20.69z"/>
	<path fill-rule="evenodd" clip-rule="evenodd" fill="#800000" d="M412.913,10.226c1.995-0.164,3.945-0.223,5.852-0.178
		c1.922,0.059,4.334,0.327,7.238,0.817l0.893,10.568l-3.887,0.326c-0.789-2.244-1.697-3.968-2.725-5.172
		c-1.028-1.204-2.174-2.006-3.439-2.407c-1.266-0.417-2.889-0.535-4.855-0.372c-1.698,0.149-3.186,0.595-4.481,1.323
		c-1.296,0.743-2.279,1.784-2.963,3.106c-0.67,1.338-0.939,2.869-0.79,4.623c0.149,1.857,0.61,3.389,1.385,4.622
		c0.774,1.219,1.921,2.319,3.425,3.299c1.504,0.966,3.693,2.021,6.582,3.151c3.484,1.382,6.21,2.72,8.176,3.998
		c1.965,1.278,3.544,2.795,4.734,4.548c1.192,1.754,1.876,3.864,2.085,6.317c0.238,2.735,0,5.098-0.7,7.061
		c-0.714,1.961-1.771,3.596-3.202,4.918c-1.429,1.308-3.186,2.333-5.27,3.048c-2.086,0.713-4.408,1.173-6.94,1.382
		c-4.11,0.342-8.89,0.044-14.37-0.877l-0.908-10.731l3.932-0.327c0.714,2.244,1.563,3.998,2.576,5.261
		c0.998,1.264,2.233,2.141,3.693,2.661c1.475,0.52,3.306,0.698,5.54,0.505c3.053-0.252,5.33-1.249,6.834-2.972
		c1.504-1.739,2.115-4.118,1.862-7.179c-0.164-1.962-0.641-3.568-1.43-4.846c-0.788-1.278-2.011-2.437-3.647-3.478
		c-1.654-1.04-4.11-2.214-7.417-3.522c-3.186-1.248-5.718-2.526-7.625-3.834c-1.906-1.292-3.365-2.75-4.378-4.385
		c-1.027-1.62-1.607-3.433-1.787-5.439c-0.238-2.928,0.224-5.515,1.415-7.789c1.192-2.273,3.068-4.102,5.629-5.499
		C406.495,11.356,409.487,10.508,412.913,10.226L412.913,10.226z"/>
	<path fill-rule="evenodd" clip-rule="evenodd" fill="#800000" d="M434.728,9.78l16.604-0.104l0.014,1.932
		c-1.16,0.283-1.98,0.58-2.502,0.877c-0.506,0.283-0.907,0.654-1.205,1.085c-0.299,0.431-0.521,1.085-0.655,1.947
		c-0.134,0.862-0.209,2.2-0.193,4.014l0.223,33.976c0.016,1.754,0.089,3.032,0.209,3.85c0.118,0.817,0.328,1.456,0.61,1.917
		c0.268,0.476,0.685,0.862,1.222,1.174c0.536,0.312,1.414,0.624,2.62,0.922l0.016,1.932l-16.604,0.104l-0.016-1.917
		c1.623-0.431,2.71-0.907,3.262-1.427c0.536-0.505,0.894-1.234,1.058-2.185c0.164-0.937,0.237-2.379,0.223-4.326l-0.223-33.976
		c-0.016-1.798-0.09-3.122-0.225-3.939c-0.133-0.833-0.357-1.472-0.654-1.932c-0.313-0.446-0.715-0.818-1.207-1.085
		c-0.506-0.268-1.354-0.58-2.561-0.906L434.728,9.78z"/>
	<path fill-rule="evenodd" clip-rule="evenodd" fill="#800000" d="M458.315,9.542l42.438,3.419l-1.101,13.615l-3.843-0.298
		c-0.386-2.289-0.805-4.102-1.279-5.47c-0.448-1.337-0.954-2.378-1.551-3.121c-0.565-0.714-1.189-1.249-1.876-1.605
		c-0.715-0.327-1.787-0.565-3.215-0.683l-4.975-0.417l-3.247,40.1c-0.118,1.545-0.146,2.794-0.058,3.715
		c0.118,0.921,0.297,1.665,0.624,2.229c0.299,0.565,0.744,1.011,1.341,1.367c0.566,0.357,1.488,0.713,2.74,1.1l-0.148,1.932
		l-17.929-1.457l0.148-1.902c0.805-0.12,1.518-0.268,2.114-0.417c0.625-0.178,1.132-0.386,1.549-0.654
		c0.388-0.268,0.744-0.625,1.043-1.07c0.268-0.476,0.535-1.1,0.744-1.872c0.207-0.804,0.356-1.993,0.506-3.568l3.217-40.1
		l-4.943-0.386c-1.222-0.089-2.235-0.06-3.068,0.118c-0.805,0.149-1.579,0.595-2.323,1.279c-0.744,0.683-1.46,1.694-2.114,3.031
		c-0.685,1.308-1.34,3.003-2.025,5.053l-3.871-0.327L458.315,9.542z"/>
	<path fill-rule="evenodd" clip-rule="evenodd" fill="#800000" d="M504.715,13.674l16.44,3.21l-0.359,1.873
		c-2.471-0.178-3.9,0.624-4.258,2.437c-0.148,0.744-0.12,1.606,0.029,2.586c0.179,1.011,0.537,2.438,1.103,4.31l4.855,16.201
		l10.244-11.92c1.37-1.636,2.413-3.003,3.068-4.073c0.654-1.1,1.071-2.141,1.25-3.092c0.178-0.92,0.06-1.724-0.388-2.348
		c-0.446-0.624-1.222-1.1-2.264-1.426l0.358-1.902l14.651,2.883l-0.386,1.873c-1.132,0.178-2.175,0.535-3.097,1.07
		c-0.925,0.505-1.907,1.278-2.979,2.259c-1.042,1.011-2.622,2.735-4.766,5.172l-14.325,16.171l-2.442,12.485
		c-0.296,1.456-0.445,2.675-0.475,3.596c-0.031,0.921,0.089,1.695,0.356,2.319c0.238,0.595,0.655,1.13,1.192,1.545
		c0.506,0.417,1.398,0.893,2.591,1.428l-0.358,1.902l-17.661-3.448l0.358-1.903c1.31,0,2.264-0.118,2.919-0.296
		c0.654-0.179,1.221-0.506,1.666-0.982c0.478-0.476,0.894-1.159,1.222-2.021c0.358-0.861,0.654-2.05,0.953-3.537l2.413-12.337
		l-6.76-21.877c-0.836-2.645-1.46-4.518-1.937-5.677c-0.477-1.16-0.982-2.11-1.549-2.825c-0.536-0.743-1.221-1.307-2.056-1.783
		L504.715,13.674z"/>
	<path fill-rule="evenodd" clip-rule="evenodd" fill="#800000" d="M589.147,38.524c-2.234-0.802-4.317-0.98-6.285-0.505
		c-1.965,0.446-3.812,1.457-5.567,2.973c-1.729,1.516-3.335,3.567-4.826,6.093c-1.459,2.527-2.798,5.469-3.99,8.799
		c-2.77,7.551-3.752,13.704-2.979,18.43c0.775,4.727,3.307,7.877,7.535,9.424c2.681,0.951,5.271,0.921,7.773-0.089
		c2.502-1.041,4.825-3.032,6.969-6.005c2.114-2.943,3.991-6.629,5.6-11.028c1.936-5.38,3.008-10.018,3.217-13.941
		c0.179-3.954-0.388-7.044-1.697-9.333C593.585,41.052,591.649,39.446,589.147,38.524L589.147,38.524z M590.576,35.374
		c4.378,1.605,7.744,3.894,10.037,6.926c2.293,3.003,3.516,6.659,3.663,10.969c0.149,4.31-0.744,9.155-2.71,14.535
		c-2.114,5.767-4.734,10.315-7.892,13.674c-3.188,3.33-6.701,5.41-10.543,6.242c-3.872,0.833-7.894,0.476-12.091-1.04
		c-2.95-1.071-5.481-2.527-7.566-4.4c-2.054-1.842-3.603-4.102-4.585-6.806c-0.982-2.676-1.37-5.797-1.161-9.334
		c0.207-3.538,1.132-7.55,2.738-12.01c1.996-5.469,4.557-9.898,7.655-13.227c3.126-3.33,6.61-5.44,10.482-6.362
		C582.477,33.59,586.467,33.888,590.576,35.374L590.576,35.374z"/>
	<path fill-rule="evenodd" clip-rule="evenodd" fill="#800000" d="M619.613,47.74l32.137,15.993l-5.331,10.612l-3.425-1.724
		c0.268-1.843,0.417-3.389,0.417-4.607c0-1.219-0.12-2.23-0.388-3.002c-0.268-0.773-0.716-1.457-1.311-1.993
		c-0.597-0.564-1.459-1.129-2.622-1.724l-10.305-5.113l-9.558,19.114l7.236,3.626c1.042,0.506,1.936,0.743,2.709,0.684
		c0.744-0.06,1.52-0.387,2.295-0.981c0.803-0.594,1.787-1.635,2.947-3.122l3.336,1.636l-7.415,14.833l-3.307-1.635
		c0.446-1.784,0.655-3.182,0.655-4.162c0-1.011-0.179-1.843-0.565-2.437c-0.388-0.624-1.104-1.189-2.175-1.725l-7.266-3.626
		l-6.88,13.793c-0.716,1.396-1.192,2.556-1.46,3.478c-0.238,0.951-0.298,1.754-0.178,2.408c0.118,0.683,0.445,1.307,0.951,1.873
		c0.537,0.564,1.192,1.189,2.025,1.873l-0.862,1.724l-15.636-7.788l0.864-1.724c1.638,0.356,2.827,0.416,3.543,0.208
		c0.715-0.208,1.37-0.713,1.936-1.487c0.595-0.742,1.311-2.021,2.175-3.745l15.188-30.409c0.804-1.605,1.341-2.824,1.579-3.627
		c0.268-0.802,0.356-1.457,0.297-2.021c-0.09-0.535-0.268-1.04-0.596-1.516c-0.327-0.446-0.953-1.1-1.876-1.962L619.613,47.74z"/>
	<path fill-rule="evenodd" clip-rule="evenodd" fill="#800000" d="M669.796,74.582l34.993,24.256l-7.831,11.237l-3.157-2.2
		c0.804-2.17,1.37-3.984,1.638-5.381c0.298-1.397,0.388-2.526,0.238-3.448c-0.118-0.922-0.388-1.724-0.833-2.349
		c-0.417-0.653-1.222-1.396-2.413-2.2l-4.11-2.853l-22.991,33.024c-0.864,1.279-1.52,2.349-1.907,3.181
		c-0.356,0.862-0.565,1.605-0.595,2.259c0,0.624,0.149,1.249,0.477,1.843c0.327,0.595,0.923,1.367,1.816,2.349l-1.102,1.574
		l-14.771-10.255l1.101-1.576c0.744,0.297,1.431,0.535,2.057,0.713c0.595,0.179,1.161,0.238,1.638,0.208
		c0.506-0.029,0.982-0.178,1.459-0.416c0.446-0.238,0.982-0.654,1.578-1.249c0.565-0.594,1.31-1.516,2.203-2.824l22.993-33.025
		l-4.08-2.824c-1.014-0.713-1.906-1.189-2.682-1.457c-0.803-0.268-1.696-0.268-2.681-0.059c-0.982,0.237-2.114,0.742-3.364,1.545
		c-1.25,0.833-2.681,1.931-4.289,3.389l-3.186-2.229L669.796,74.582z"/>
	<path fill-rule="evenodd" clip-rule="evenodd" fill="#800000" d="M711.342,104.218l12.33,11.028l-1.281,1.428
		c-1.043-0.536-1.876-0.893-2.442-1.011c-0.565-0.119-1.101-0.119-1.638,0c-0.506,0.118-1.103,0.446-1.786,0.98
		c-0.685,0.565-1.638,1.516-2.83,2.854l-9.321,10.344l16.319,14.595l9.293-10.375c1.52-1.694,2.472-2.913,2.858-3.686
		c0.417-0.772,0.566-1.516,0.478-2.2c-0.118-0.683-0.596-1.694-1.46-3.032l1.281-1.427l12.27,10.968l-1.281,1.458
		c-1.339-0.714-2.381-1.101-3.097-1.13c-0.744-0.06-1.488,0.208-2.264,0.743c-0.773,0.535-1.876,1.605-3.306,3.21l-22.724,25.326
		c-1.012,1.129-1.756,1.991-2.204,2.615c-0.445,0.625-0.744,1.16-0.922,1.606c-0.179,0.475-0.268,0.892-0.238,1.278
		c0,0.416,0.089,0.833,0.298,1.337c0.208,0.506,0.596,1.189,1.19,2.081l-1.281,1.427l-12.299-10.998l1.281-1.428
		c1.339,0.684,2.353,1.071,3.097,1.13c0.715,0.03,1.46-0.208,2.232-0.743c0.805-0.535,1.907-1.604,3.366-3.21l10.989-12.276
		l-16.291-14.565l-10.989,12.246c-1.191,1.308-1.996,2.319-2.441,3.002c-0.477,0.684-0.744,1.279-0.864,1.814
		c-0.089,0.535-0.059,1.1,0.12,1.694c0.207,0.595,0.624,1.397,1.339,2.438l-1.31,1.426l-12.33-11.028l1.281-1.427
		c1.488,0.772,2.62,1.159,3.364,1.13c0.746,0,1.52-0.297,2.264-0.892c0.775-0.594,1.787-1.605,3.097-3.062l22.726-25.297
		c1.189-1.337,2.025-2.378,2.471-3.061c0.448-0.713,0.716-1.338,0.805-1.874c0.089-0.535,0.029-1.1-0.149-1.634
		c-0.179-0.535-0.626-1.308-1.281-2.378L711.342,104.218z"/>
	<path fill-rule="evenodd" clip-rule="evenodd" fill="#800000" d="M752.471,142.565l24.214,27.644l-8.966,7.788l-2.53-2.883
		c0.715-1.13,1.28-2.2,1.758-3.151c0.445-0.952,0.772-1.813,0.982-2.556c0.178-0.773,0.268-1.487,0.207-2.17
		c-0.06-0.654-0.268-1.308-0.655-1.962c-0.388-0.624-0.894-1.337-1.577-2.111l-8.19-9.333l-15.518,13.524l5.541,6.332
		c0.773,0.863,1.488,1.457,2.174,1.724c0.655,0.269,1.46,0.328,2.322,0.119c0.894-0.178,2.085-0.683,3.604-1.486l2.442,2.765
		l-11.379,9.928l-2.441-2.765c0.953-1.307,1.579-2.408,1.876-3.269c0.299-0.863,0.388-1.635,0.238-2.319
		c-0.147-0.684-0.624-1.486-1.429-2.408l-5.54-6.332l-17.125,14.923l8.072,9.185c0.833,0.981,1.608,1.694,2.323,2.14
		c0.685,0.446,1.429,0.713,2.204,0.802c0.773,0.089,1.666,0,2.591-0.237c0.951-0.237,1.876-0.535,2.77-0.921
		s2.203-0.981,3.901-1.754l2.56,2.943l-10.899,8.501l-24.004-27.376l1.459-1.278c1.399,0.951,2.473,1.457,3.218,1.546
		c0.744,0.089,1.519-0.119,2.353-0.624c0.833-0.506,1.965-1.368,3.424-2.646l25.643-22.383c1.341-1.189,2.293-2.082,2.829-2.735
		c0.537-0.653,0.894-1.218,1.043-1.754c0.149-0.535,0.149-1.07,0.029-1.634c-0.118-0.535-0.446-1.396-0.982-2.526L752.471,142.565z"
		/>
	<path fill-rule="evenodd" clip-rule="evenodd" fill="#800000" d="M798.604,207.664c-1.401-2.2-2.531-3.805-3.307-4.845
		l-20.014,12.9l2.473,3.834c1.609,2.467,3.275,4.31,4.974,5.499c1.697,1.219,3.573,1.754,5.628,1.636
		c2.056-0.119,4.349-0.981,6.851-2.586c1.876-1.219,3.307-2.497,4.229-3.805c0.953-1.337,1.519-2.675,1.697-4.072
		c0.209-1.397,0.061-2.794-0.417-4.251C800.242,210.547,799.527,209.09,798.604,207.664L798.604,207.664z M791.842,190.838
		l10.574,16.349c3.335,5.143,4.823,9.631,4.496,13.406c-0.356,3.805-2.531,6.986-6.553,9.601c-2.293,1.458-4.614,2.408-6.967,2.795
		c-2.354,0.386-4.559,0.237-6.673-0.476c-2.114-0.683-4.051-1.872-5.838-3.537c-1.786-1.635-3.396-3.567-4.794-5.738
		c-1.578-2.437-2.77-4.369-3.543-5.767l-10.99,7.075c-1.281,0.862-2.293,1.576-2.948,2.23c-0.686,0.654-1.163,1.248-1.431,1.843
		c-0.238,0.594-0.356,1.218-0.267,1.872c0.06,0.684,0.327,1.635,0.804,2.854l-1.638,1.07l-9.382-14.506l1.638-1.04
		c1.221,1.13,2.203,1.813,2.948,1.991c0.715,0.178,1.519,0.089,2.412-0.268c0.894-0.387,2.146-1.1,3.783-2.141l28.59-18.43
		c1.52-0.98,2.591-1.754,3.217-2.318c0.627-0.565,1.043-1.101,1.281-1.576c0.208-0.505,0.297-1.041,0.268-1.605
		s-0.238-1.457-0.626-2.646L791.842,190.838z"/>
	<path fill-rule="evenodd" clip-rule="evenodd" fill="#800000" d="M817.277,231.384l7.237,14.893l-1.756,0.832
		c-0.746-0.921-1.371-1.545-1.848-1.873c-0.506-0.327-0.982-0.535-1.52-0.624c-0.506-0.059-1.191,0-2.054,0.268
		c-0.836,0.238-2.057,0.743-3.694,1.546l-12.537,6.063l9.559,19.649l12.539-6.064c2.055-0.98,3.396-1.783,4.051-2.348
		c0.654-0.565,1.071-1.189,1.25-1.843c0.18-0.654,0.12-1.784-0.179-3.359l1.727-0.832l7.208,14.803l-1.756,0.832
		c-0.953-1.159-1.787-1.902-2.442-2.2c-0.656-0.327-1.459-0.386-2.384-0.178c-0.922,0.208-2.353,0.803-4.288,1.724l-30.615,14.833
		c-1.37,0.683-2.382,1.219-3.039,1.604c-0.655,0.417-1.13,0.773-1.459,1.16c-0.328,0.356-0.566,0.713-0.714,1.07
		c-0.149,0.387-0.238,0.833-0.238,1.367c0,0.535,0.118,1.308,0.328,2.349l-1.729,0.831l-7.205-14.803l1.727-0.832
		c0.953,1.129,1.787,1.872,2.413,2.2c0.655,0.327,1.459,0.386,2.382,0.178c0.922-0.208,2.353-0.773,4.317-1.724l14.832-7.194
		l-9.529-19.649l-14.862,7.194c-1.578,0.772-2.71,1.367-3.394,1.843c-0.657,0.446-1.163,0.922-1.46,1.368
		c-0.298,0.445-0.477,0.98-0.536,1.604c-0.061,0.625,0.06,1.546,0.298,2.765l-1.729,0.832l-7.236-14.862l1.727-0.862
		c1.103,1.278,1.996,2.051,2.681,2.348c0.715,0.268,1.519,0.268,2.443,0c0.923-0.237,2.262-0.802,4.02-1.635l30.617-14.834
		c1.638-0.802,2.799-1.426,3.482-1.902c0.687-0.476,1.163-0.951,1.431-1.426c0.298-0.476,0.447-1.011,0.477-1.576
		s-0.061-1.457-0.268-2.676L817.277,231.384z"/>
	<path fill-rule="evenodd" clip-rule="evenodd" fill="#800000" d="M839.733,280.342l5.866,15.517l-1.786,0.683
		c-0.685-0.98-1.25-1.665-1.698-2.021c-0.445-0.387-0.953-0.624-1.459-0.772c-0.506-0.119-1.192-0.089-2.055,0.06
		c-0.864,0.178-2.146,0.595-3.843,1.219l-31.836,12.009c-1.638,0.624-2.83,1.13-3.545,1.545c-0.713,0.387-1.25,0.802-1.608,1.219
		c-0.328,0.416-0.566,0.951-0.655,1.546c-0.118,0.624-0.089,1.545,0.031,2.794l-1.787,0.683l-5.868-15.517l1.787-0.683
		c0.984,1.367,1.786,2.229,2.473,2.556c0.655,0.327,1.488,0.416,2.413,0.237c0.951-0.178,2.321-0.594,4.14-1.278l31.866-12.009
		c1.696-0.654,2.888-1.159,3.633-1.576c0.715-0.416,1.252-0.861,1.548-1.308c0.328-0.416,0.537-0.921,0.626-1.485
		c0.089-0.565,0.061-1.486-0.06-2.736L839.733,280.342z"/>
	<path fill-rule="evenodd" clip-rule="evenodd" fill="#800000" d="M848.547,304.123l4.647,15.874l-1.847,0.535
		c-0.627-1.01-1.132-1.724-1.52-2.11c-0.357-0.387-0.805-0.684-1.281-0.862c-0.506-0.178-1.19-0.238-2.055-0.148
		c-0.894,0.089-2.232,0.387-4.05,0.921l-38.656,11.236l2.888,9.87c0.298,1.07,0.626,1.961,0.982,2.675
		c0.327,0.683,0.715,1.248,1.132,1.694c0.417,0.417,0.894,0.773,1.49,1.07c0.595,0.269,1.311,0.506,2.173,0.654
		c0.864,0.149,1.936,0.238,3.188,0.238c1.222,0.029,3.068-0.06,5.51-0.238l1.102,3.835l-15.398,3.656l-9.886-33.917l1.845-0.535
		c0.865,1.427,1.609,2.349,2.264,2.734c0.655,0.387,1.46,0.536,2.413,0.417c0.954-0.089,2.353-0.417,4.229-0.951l32.672-9.482
		c1.758-0.506,3.008-0.952,3.752-1.308c0.744-0.357,1.311-0.743,1.669-1.16c0.356-0.416,0.595-0.892,0.713-1.457
		c0.149-0.535,0.209-1.456,0.181-2.705L848.547,304.123z"/>
	<path fill-rule="evenodd" clip-rule="evenodd" fill="#800000" d="M859.627,345.084l3.364,16.23l-1.876,0.387
		c-0.506-1.07-0.982-1.813-1.34-2.259c-0.388-0.446-0.833-0.773-1.31-0.982c-0.508-0.207-1.192-0.267-2.057-0.237
		c-0.862,0.03-2.203,0.237-3.961,0.595l-33.355,6.896c-1.728,0.356-2.948,0.684-3.724,0.952c-0.772,0.297-1.368,0.624-1.786,0.98
		c-0.386,0.356-0.714,0.833-0.894,1.427c-0.208,0.594-0.328,1.516-0.386,2.765l-1.907,0.386l-3.364-16.23l1.876-0.386
		c0.744,1.485,1.429,2.467,2.025,2.913c0.624,0.416,1.399,0.624,2.382,0.594c0.953-0.029,2.384-0.237,4.289-0.624l33.326-6.896
		c1.787-0.387,3.037-0.713,3.841-1.011c0.775-0.296,1.37-0.624,1.758-1.011s0.655-0.861,0.834-1.396
		c0.148-0.536,0.298-1.457,0.387-2.705L859.627,345.084z"/>
	<path fill-rule="evenodd" clip-rule="evenodd" fill="#800000" d="M863.468,388.127c-0.327-2.556-0.624-4.488-0.894-5.767
		l-23.617,2.913l0.566,4.519c0.358,2.943,1.043,5.321,2.056,7.134c0.983,1.812,2.442,3.122,4.348,3.894
		c1.936,0.802,4.349,1.012,7.297,0.655c2.234-0.267,4.079-0.802,5.48-1.575c1.429-0.803,2.531-1.784,3.304-2.943
		c0.775-1.16,1.281-2.497,1.491-3.983C863.677,391.457,863.677,389.851,863.468,388.127L863.468,388.127z M864.689,370.054
		l2.413,19.321c0.744,6.094,0.149,10.762-1.816,14.032c-1.936,3.27-5.302,5.202-10.065,5.766c-2.712,0.356-5.214,0.178-7.478-0.475
		c-2.292-0.684-4.229-1.785-5.806-3.33c-1.609-1.544-2.859-3.448-3.724-5.708c-0.894-2.259-1.52-4.696-1.815-7.253
		c-0.358-2.883-0.597-5.143-0.687-6.747l-12.984,1.604c-1.52,0.208-2.74,0.447-3.634,0.714c-0.894,0.297-1.578,0.624-2.055,1.04
		c-0.506,0.417-0.864,0.952-1.071,1.606c-0.238,0.624-0.417,1.604-0.537,2.913l-1.905,0.238l-2.146-17.123l1.907-0.237
		c0.624,1.545,1.221,2.586,1.816,3.061c0.565,0.476,1.341,0.743,2.292,0.803c0.954,0.06,2.384-0.03,4.32-0.267l33.801-4.192
		c1.787-0.238,3.1-0.446,3.901-0.684c0.805-0.238,1.401-0.536,1.818-0.892c0.416-0.357,0.744-0.772,0.953-1.307
		c0.207-0.536,0.417-1.428,0.595-2.646L864.689,370.054z"/>
	<path fill-rule="evenodd" clip-rule="evenodd" fill="#800000" d="M866.507,433.548c-0.031-2.587-0.12-4.548-0.268-5.856
		l-23.797,0.415l0.089,4.551c0.031,2.971,0.477,5.408,1.281,7.31c0.804,1.903,2.114,3.36,3.93,4.37
		c1.818,0.983,4.2,1.458,7.179,1.397c2.232-0.028,4.11-0.388,5.628-1.012c1.49-0.624,2.681-1.484,3.604-2.554
		c0.894-1.07,1.52-2.35,1.876-3.807C866.387,436.878,866.536,435.272,866.507,433.548L866.507,433.548z M869.665,415.684
		l0.327,19.498c0.118,6.125-0.982,10.702-3.277,13.733c-2.293,3.062-5.837,4.608-10.632,4.697c-2.738,0.029-5.212-0.387-7.386-1.278
		c-2.204-0.921-4.02-2.229-5.421-3.923c-1.429-1.696-2.471-3.715-3.097-6.064c-0.655-2.349-1.012-4.815-1.043-7.432
		c-0.059-2.882-0.029-5.142,0.031-6.747l-13.045,0.236c-1.549,0.031-2.801,0.12-3.694,0.299c-0.922,0.207-1.638,0.475-2.172,0.831
		c-0.537,0.357-0.954,0.863-1.253,1.456c-0.296,0.624-0.565,1.546-0.833,2.854l-1.936,0.029l-0.299-17.241l1.936-0.029
		c0.448,1.605,0.925,2.676,1.46,3.239c0.508,0.537,1.252,0.864,2.203,1.042c0.954,0.147,2.384,0.208,4.32,0.178l34.039-0.595
		c1.818-0.029,3.128-0.119,3.962-0.268c0.833-0.149,1.459-0.386,1.907-0.684c0.477-0.326,0.833-0.713,1.101-1.219
		s0.537-1.366,0.864-2.556L869.665,415.684z"/>
	<path fill-rule="evenodd" clip-rule="evenodd" fill="#800000" d="M869.543,460.626l-1.042,16.559l-1.937-0.12
		c-0.207-1.158-0.445-2.021-0.684-2.556c-0.268-0.504-0.596-0.952-1.012-1.277c-0.419-0.327-1.043-0.595-1.907-0.773
		c-0.864-0.207-2.175-0.356-3.99-0.475l-33.981-2.171c-1.758-0.118-3.037-0.149-3.842-0.06c-0.835,0.06-1.49,0.209-1.967,0.445
		c-0.506,0.238-0.923,0.624-1.25,1.161c-0.356,0.504-0.744,1.337-1.132,2.525l-1.905-0.118l1.041-16.527l1.936,0.118
		c0.299,1.636,0.716,2.766,1.192,3.329c0.477,0.595,1.161,0.98,2.114,1.219c0.923,0.238,2.353,0.417,4.289,0.535l33.981,2.171
		c1.815,0.118,3.126,0.118,3.961,0.058c0.834-0.089,1.489-0.268,1.966-0.534c0.477-0.268,0.864-0.653,1.16-1.128
		c0.328-0.478,0.687-1.309,1.104-2.499L869.543,460.626z"/>
	<path fill-rule="evenodd" clip-rule="evenodd" fill="#800000" d="M868.027,486.37l-1.937,12.128l-35.053,14.121
		c-1.698,0.713-3.188,1.277-4.47,1.723c-1.25,0.446-2.681,0.892-4.229,1.338l-0.089,0.505c1.608,0.121,4.766,0.506,9.5,1.13
		c4.705,0.655,8.965,1.248,12.748,1.844l8.159,1.308c1.787,0.268,3.128,0.417,3.962,0.446c0.833,0.029,1.519-0.061,1.996-0.268
		c0.475-0.179,0.891-0.506,1.25-0.951c0.327-0.446,0.772-1.22,1.31-2.35l1.907,0.299l-2.205,13.971l-1.905-0.298
		c-0.149-1.219-0.299-2.08-0.477-2.616c-0.179-0.504-0.446-0.95-0.834-1.307c-0.358-0.356-0.953-0.684-1.758-0.982
		c-0.804-0.297-2.144-0.564-4.05-0.86l-43.571-6.866l0.775-4.877l39.728-15.872c2.441-1.012,4.26-1.695,5.392-2.11
		c1.101-0.388,2.232-0.773,3.307-1.101l0.118-0.653c-2.025-0.149-5.659-0.566-10.899-1.309c-5.243-0.744-10.454-1.546-15.637-2.349
		l-7.923-1.248c-1.727-0.268-3.008-0.417-3.841-0.446c-0.804,0-1.488,0.09-1.996,0.297c-0.506,0.209-0.951,0.535-1.339,1.012
		c-0.417,0.475-0.864,1.309-1.342,2.437l-1.904-0.297l2.232-14.149l1.907,0.298c0.148,1.665,0.445,2.793,0.862,3.417
		c0.418,0.626,1.073,1.101,1.996,1.429c0.894,0.296,2.323,0.624,4.229,0.92l33.625,5.291c1.787,0.268,3.097,0.417,3.931,0.417
		c0.864,0,1.519-0.118,2.024-0.327c0.506-0.237,0.923-0.564,1.281-1.01c0.328-0.446,0.773-1.248,1.311-2.378L868.027,486.37z"/>
	<path fill-rule="evenodd" clip-rule="evenodd" fill="#800000" d="M858.286,541.244l-9.977,35.373l-11.466-3.239l1.072-3.686
		c1.341-0.031,2.532-0.12,3.573-0.268c1.043-0.149,1.937-0.327,2.712-0.595c0.744-0.238,1.37-0.566,1.904-0.98
		c0.537-0.417,0.954-0.952,1.311-1.607c0.327-0.682,0.626-1.516,0.925-2.496l3.364-11.949l-19.865-5.588l-2.262,8.114
		c-0.327,1.1-0.419,2.021-0.27,2.735c0.12,0.713,0.508,1.396,1.163,2.021c0.624,0.624,1.727,1.368,3.215,2.2l-0.982,3.537
		l-14.563-4.072l1.012-3.567c1.608,0.089,2.859,0,3.752-0.208c0.894-0.207,1.58-0.563,2.086-1.069s0.894-1.338,1.25-2.527
		l2.264-8.086l-21.83-6.153l-3.336,11.772c-0.356,1.219-0.534,2.26-0.534,3.091c0,0.833,0.178,1.575,0.534,2.289
		c0.359,0.684,0.894,1.368,1.609,2.05c0.715,0.655,1.488,1.25,2.292,1.814c0.836,0.535,2.025,1.308,3.604,2.289l-1.073,3.746
		l-13.074-4.46l9.888-35.016l1.848,0.506c-0.029,1.693,0.118,2.853,0.445,3.536c0.358,0.653,0.954,1.188,1.818,1.634
		c0.862,0.417,2.232,0.894,4.108,1.397l32.761,9.216c1.729,0.506,3.039,0.802,3.872,0.892c0.804,0.089,1.488,0.06,2.025-0.09
		c0.506-0.178,0.982-0.445,1.37-0.862c0.416-0.415,0.922-1.128,1.608-2.199L858.286,541.244z"/>
	<path fill-rule="evenodd" clip-rule="evenodd" fill="#800000" d="M839.167,602.002c-0.744,1.843-1.549,3.626-2.442,5.322
		c-0.894,1.662-2.203,3.715-3.932,6.093l-9.889-3.864l1.431-3.626c2.353,0.296,4.317,0.236,5.837-0.149
		c1.549-0.386,2.77-1.041,3.692-2.021c0.925-0.951,1.758-2.349,2.473-4.161c0.626-1.606,0.894-3.122,0.805-4.608
		s-0.597-2.823-1.49-4.012c-0.894-1.219-2.144-2.142-3.781-2.766c-1.758-0.684-3.336-0.951-4.766-0.802
		c-1.46,0.148-2.948,0.684-4.496,1.604c-1.52,0.922-3.456,2.409-5.748,4.488c-2.77,2.527-5.183,4.37-7.208,5.561
		c-2.025,1.188-4.079,1.932-6.165,2.199c-2.114,0.297-4.317,0-6.612-0.894c-2.561-1.01-4.557-2.258-6.016-3.773
		c-1.459-1.486-2.471-3.182-3.008-5.025c-0.566-1.872-0.685-3.894-0.417-6.093c0.299-2.171,0.894-4.429,1.818-6.807
		c1.518-3.835,3.901-7.996,7.177-12.484l10.036,3.953l-1.459,3.655c-2.323-0.356-4.289-0.356-5.868-0.029
		c-1.578,0.328-2.919,1.041-4.02,2.14c-1.132,1.07-2.085,2.646-2.89,4.728c-1.132,2.853-1.25,5.321-0.356,7.43
		c0.894,2.112,2.77,3.718,5.599,4.848c1.847,0.713,3.514,1.01,5.002,0.86c1.49-0.147,3.068-0.714,4.737-1.723
		c1.666-1.012,3.812-2.706,6.432-5.084c2.563-2.289,4.826-4.014,6.82-5.112c2.025-1.13,3.99-1.783,5.897-1.992
		c1.905-0.179,3.783,0.089,5.688,0.802c2.71,1.102,4.855,2.646,6.344,4.728c1.52,2.081,2.353,4.548,2.473,7.461
		C840.983,595.76,840.417,598.793,839.167,602.002L839.167,602.002z"/>
	<path fill-rule="evenodd" clip-rule="evenodd" fill="#800000" d="M381.12,801.432l2.323,0.415
		c-0.655,2.646-1.399,6.362-2.263,11.118l-6.463,35.818c-0.298,1.604-0.417,2.854-0.387,3.716c0.029,0.862,0.238,1.575,0.625,2.199
		c0.357,0.595,0.954,1.101,1.757,1.547c0.834,0.475,1.877,0.892,3.157,1.279c1.281,0.385,3.008,0.802,5.152,1.248l-0.536,3.062
		l-31.063-5.589l0.566-3.063c3.127,0.417,5.391,0.655,6.761,0.655c1.37,0,2.441-0.179,3.216-0.535
		c0.804-0.356,1.429-0.922,1.906-1.725c0.477-0.831,0.894-2.2,1.251-4.161l6.135-34.007c0.179-1.13,0.149-1.992-0.148-2.556
		c-0.298-0.596-0.834-0.952-1.578-1.102c-0.894-0.146-2.264,0.061-4.081,0.716c-1.817,0.624-4.11,1.516-6.82,2.703l-1.281-3.565
		L381.12,801.432z"/>
	<path fill-rule="evenodd" clip-rule="evenodd" fill="#800000" d="M417.84,809.279c-2.113-0.149-3.96,0.118-5.479,0.742
		c-1.518,0.655-2.799,1.576-3.812,2.826c-0.982,1.217-1.757,2.703-2.323,4.399c-0.536,1.723-0.863,3.595-1.013,5.647
		c-0.268,4.221,0.388,7.55,1.966,9.986c1.578,2.438,3.93,3.775,7.087,3.984c1.073,0.059,2.114,0.029,3.098-0.089
		c1.013-0.12,1.995-0.327,2.948-0.624c0.953-0.299,1.906-0.685,2.829-1.161c0.924-0.504,1.787-1.039,2.532-1.604
		c0.268-0.238,0.506-0.506,0.744-0.862c0.209-0.356,0.417-0.831,0.566-1.427c0.148-0.563,0.268-1.516,0.357-2.794
		c0.237-3.865,0.059-7.224-0.537-10.047c-0.596-2.795-1.638-4.964-3.156-6.481C422.129,810.259,420.194,809.428,417.84,809.279
		L417.84,809.279z M418.556,805.711c5.956,0.388,10.364,2.736,13.224,7.046c2.857,4.311,4.02,10.344,3.514,18.044
		c-0.477,7.073-2.025,13.108-4.646,18.132c-2.65,5.023-6.135,8.828-10.482,11.444c-4.35,2.585-9.292,3.953-14.862,4.103
		l-1.607-2.438l0.148-2.081c3.991,0.268,7.476-0.386,10.513-1.961c3.009-1.576,5.54-4.014,7.535-7.344
		c1.995-3.327,3.484-7.758,4.467-13.316l-0.416-0.178c-2.502,1.516-4.943,2.616-7.297,3.27c-2.382,0.624-4.914,0.862-7.594,0.684
		c-3.216-0.207-5.896-1.099-8.071-2.646c-2.174-1.546-3.723-3.626-4.706-6.242s-1.34-5.618-1.102-9.006
		c0.148-2.559,0.744-4.937,1.757-7.165c0.982-2.229,2.383-4.161,4.169-5.768c1.787-1.604,3.99-2.823,6.552-3.655
		C412.242,805.8,415.19,805.475,418.556,805.711L418.556,805.711z"/>
	<path fill-rule="evenodd" clip-rule="evenodd" fill="#800000" d="M459.268,809.607c-1.965,0.089-3.573,0.742-4.825,1.961
		c-1.279,1.248-2.264,2.973-2.978,5.173c-0.715,2.229-1.162,4.905-1.37,8.055c-0.209,3.182-0.209,6.719-0.03,10.672
		c0.418,9.245,1.579,15.993,3.515,20.243c1.905,4.25,4.675,6.303,8.279,6.124c3.454-0.149,5.897-2.319,7.387-6.451
		c1.488-4.161,2.024-10.493,1.638-19.024c-0.299-6.539-0.954-11.801-1.997-15.814c-1.04-4.014-2.353-6.866-3.959-8.531
		C463.319,810.32,461.443,809.517,459.268,809.607L459.268,809.607z M459.329,805.979c6.223-0.268,10.959,1.902,14.234,6.569
		c3.246,4.667,5.094,11.832,5.539,21.551c0.477,10.047-0.805,17.718-3.841,23.009c-3.008,5.291-7.653,8.085-13.907,8.382
		c-6.137,0.268-10.813-1.933-14.059-6.628c-3.217-4.667-5.033-11.921-5.48-21.761c-0.237-5.201,0-9.748,0.775-13.583
		c0.744-3.864,1.906-7.045,3.455-9.602c1.548-2.587,3.453-4.488,5.717-5.797C454.057,806.812,456.557,806.099,459.329,805.979
		L459.329,805.979z"/>
	<path fill-rule="evenodd" clip-rule="evenodd" fill="#800000" d="M504.031,811.211l-12.329,28.745l0.089,0.595l16.498-2.587
		l-1.667-10.493c-0.418-2.646-0.864-5.589-1.28-8.888c-0.448-3.27-0.744-5.768-0.894-7.433L504.031,811.211z M503.761,801.521
		l6.016-0.951l5.749,36.235l0.893-0.149c1.64-0.236,2.77-0.564,3.456-0.892c0.655-0.356,1.161-0.862,1.548-1.545
		c0.357-0.684,0.627-1.754,0.805-3.182l3.217-0.504l0.863,8.738l-10.127,1.604l1.104,6.927c0.298,1.872,0.565,3.24,0.833,4.072
		c0.27,0.862,0.597,1.517,0.953,1.963c0.388,0.475,0.894,0.831,1.52,1.069c0.624,0.238,1.608,0.417,2.977,0.564l0.328,2.053
		l-17.125,2.703l-0.327-2.051c1.669-0.713,2.74-1.397,3.246-2.05c0.508-0.624,0.775-1.486,0.805-2.527
		c0.03-1.041-0.149-2.586-0.478-4.667l-1.071-6.897l-23.468,3.717l-0.506-3.18L503.761,801.521z"/>
	<path fill-rule="evenodd" clip-rule="evenodd" fill="#800000" d="M87.202,432.091c0-196.991,160.019-356.707,357.384-356.707
		c197.395,0,357.383,159.715,357.383,356.707c0,197.021-159.988,356.707-357.383,356.707
		C247.22,788.798,87.202,629.112,87.202,432.091"/>
	<polygon fill-rule="evenodd" clip-rule="evenodd" fill="#FFDF00" points="445.299,106.061 445.299,429.952 372.394,329.879 
		445.299,106.061 	"/>
	<polygon fill-rule="evenodd" clip-rule="evenodd" fill="#CC9933" points="445.299,106.061 445.299,429.952 517.967,329.895 
		445.299,106.061 	"/>
	<polygon fill-rule="evenodd" clip-rule="evenodd" fill="#DAA520" points="445.299,106.061 445.299,429.952 517.967,329.895 
		445.299,106.061 	"/>
	<polygon fill-rule="evenodd" clip-rule="evenodd" fill="#FFDF00" points="753.841,329.835 445.299,429.952 518.117,329.835 
		753.841,329.835 	"/>
	<polygon fill-rule="evenodd" clip-rule="evenodd" fill="#DAA520" points="753.841,329.835 445.299,430.159 563,468.238 
		753.841,329.835 	"/>
	<polygon fill-rule="evenodd" clip-rule="evenodd" fill="#FFDF00" points="636.143,692.012 445.299,429.952 563.296,468.238 
		636.143,692.012 	"/>
	<polygon fill-rule="evenodd" clip-rule="evenodd" fill="#DAA520" points="636.143,692.012 445.299,429.952 445.299,553.728 
		636.143,692.012 	"/>
	<polygon fill-rule="evenodd" clip-rule="evenodd" fill="#FFDF00" points="254.219,692.012 445.299,429.952 445.122,553.907 
		254.219,692.012 	"/>
	<polygon fill-rule="evenodd" clip-rule="evenodd" fill="#CC9933" points="254.219,692.012 445.299,429.952 327.125,468.03 
		254.219,692.012 	"/>
	<polygon fill-rule="evenodd" clip-rule="evenodd" fill="#DAA520" points="254.219,692.012 445.299,429.952 327.125,468.03 
		254.219,692.012 	"/>
	<polygon fill-rule="evenodd" clip-rule="evenodd" fill="#FFDF00" points="136.521,329.835 445.299,430.159 327.214,468.238 
		136.521,329.835 	"/>
	<polygon fill-rule="evenodd" clip-rule="evenodd" fill="#DAA520" points="136.521,329.835 445.299,429.952 372.305,329.835 
		136.521,329.835 	"/>
	<polygon fill-rule="evenodd" clip-rule="evenodd" fill="#FFFFFF" points="572.291,428.762 572.291,428.762 571.517,415.831 
		569.728,403.079 566.513,390.922 562.135,379.18 556.565,367.824 550.4,357.688 543.014,347.73 534.855,338.753 525.682,330.578 
		515.735,323.207 505.37,316.845 493.994,311.465 482.437,307.095 470.288,303.915 457.542,302.102 444.585,301.298 
		444.585,307.898 456.945,308.492 468.917,310.276 480.651,313.07 491.612,317.439 502.184,322.225 512.13,328.587 521.512,335.573 
		530.268,343.331 538.042,351.892 545.01,361.255 551.175,371.213 556.177,381.974 560.555,392.735 563.327,404.476 
		565.143,416.219 565.738,428.762 565.738,428.762 572.291,428.762 	"/>
	<polygon fill-rule="evenodd" clip-rule="evenodd" fill="#FFFFFF" points="444.585,556.226 444.585,556.226 457.542,555.631 
		470.288,553.639 482.437,550.458 493.994,546.088 505.37,540.916 515.735,534.526 525.682,527.154 534.855,518.801 
		543.014,509.824 550.4,500.074 556.565,489.521 562.135,478.552 566.513,466.602 569.728,454.476 571.517,441.514 572.291,428.762 
		565.738,428.762 565.143,441.126 563.327,453.079 560.555,464.612 556.177,475.789 551.175,486.34 545.01,496.298 538.042,505.841 
		530.268,514.223 521.512,521.981 512.13,528.968 502.184,535.329 491.612,540.114 480.651,544.484 468.917,547.279 
		456.945,549.061 444.585,549.864 444.585,549.864 444.585,556.226 	"/>
	<polygon fill-rule="evenodd" clip-rule="evenodd" fill="#FFFFFF" points="317.118,428.762 317.118,428.762 317.744,441.514 
		319.531,454.476 322.896,466.602 327.095,478.167 332.456,489.521 338.829,500.074 346.216,509.824 354.584,518.801 
		363.34,527.154 373.288,534.526 383.86,540.916 394.998,546.088 406.762,550.458 418.914,553.639 431.839,555.631 444.585,556.226 
		444.585,549.864 432.256,549.061 420.313,547.279 408.549,544.484 397.411,540.114 387.046,535.329 376.891,528.968 
		367.51,521.981 359.171,514.223 351.189,505.841 344.428,496.298 338.055,486.34 333.052,475.966 328.882,464.612 326.083,453.079 
		324.118,441.126 323.492,428.762 323.492,428.762 317.118,428.762 	"/>
	<polygon fill-rule="evenodd" clip-rule="evenodd" fill="#FFFFFF" points="444.585,301.298 444.585,301.298 431.839,302.102 
		418.899,303.9 406.748,307.081 394.998,311.465 383.845,316.845 373.288,323.207 363.325,330.578 354.57,338.753 346.201,347.715 
		338.829,357.673 332.456,367.824 327.081,379.373 322.896,390.922 319.516,403.079 317.729,415.816 317.118,428.762 
		323.492,428.762 324.102,416.219 326.083,404.476 328.882,392.72 333.052,381.766 338.041,371.213 344.414,361.255 
		351.189,351.892 359.156,343.331 367.51,335.558 376.876,328.587 387.032,322.211 397.396,317.439 408.549,313.056 
		420.298,310.261 432.241,308.478 444.585,307.883 444.585,307.883 444.585,301.298 	"/>
	<polygon fill-rule="evenodd" clip-rule="evenodd" fill="#FFFFFF" points="607.076,428.048 607.076,428.048 606.898,419.696 
		606.301,411.521 605.29,403.556 603.89,395.588 602.103,387.592 599.898,379.834 597.306,372.253 594.298,364.703 591.113,357.926 
		587.33,350.733 583.517,344.163 579.349,337.385 574.732,330.995 569.938,324.842 564.548,319.045 559.366,313.278 
		553.588,308.077 547.78,302.696 541.586,297.94 535.211,293.332 528.421,289.171 521.839,285.366 514.632,281.59 507.843,278.41 
		500.277,275.408 492.684,273.03 484.881,270.622 476.899,268.838 468.917,267.441 460.935,266.43 452.745,265.836 444.347,265.628 
		444.347,272.02 452.359,272.227 460.549,273.03 468.114,273.803 475.707,275.2 483.511,277.013 490.897,278.797 497.866,281.382 
		505.072,284.385 512.041,287.565 518.625,290.746 525.235,294.729 531.429,298.92 538.01,302.904 543.612,307.898 549.388,312.683 
		554.778,317.856 559.96,323.236 564.755,329.003 569.759,334.592 573.75,341.161 577.95,347.344 581.94,353.913 585.125,360.69 
		588.314,367.468 591.322,374.662 593.913,381.826 595.7,388.99 597.516,396.986 598.915,404.537 599.898,412.116 600.495,420.083 
		600.702,428.048 600.702,428.048 607.076,428.048 	"/>
	<polygon fill-rule="evenodd" clip-rule="evenodd" fill="#FFFFFF" points="444.347,590.708 444.347,590.708 452.745,590.53 
		460.935,589.725 468.917,588.922 476.899,587.526 484.881,585.743 492.684,583.365 500.277,580.779 507.843,577.985 
		514.632,574.625 521.839,571.029 528.421,567.046 535.211,563.092 541.586,558.515 547.78,553.55 553.588,548.377 559.366,542.998 
		564.548,537.439 569.938,531.671 574.732,525.311 579.349,518.95 583.517,512.38 587.33,505.81 591.113,498.647 594.298,491.304 
		597.306,483.932 599.898,476.383 602.103,468.624 603.89,460.866 605.29,452.929 606.301,444.576 606.898,436.611 607.076,428.048 
		600.702,428.048 600.495,436.223 599.898,444.16 598.915,451.917 597.516,459.468 595.7,467.228 593.913,474.598 591.322,481.763 
		588.314,489.104 585.125,495.881 581.94,502.63 577.95,509.2 573.75,515.353 569.759,521.536 564.755,527.481 559.96,533.247 
		554.778,538.419 549.388,543.799 543.612,548.555 538.01,553.342 531.429,557.503 525.235,561.696 518.625,565.47 512.041,568.651 
		505.072,572.039 497.866,575.011 490.897,577.389 483.511,579.172 475.707,581.165 468.114,582.562 460.549,583.365 
		452.359,584.167 444.347,584.345 444.347,584.345 444.347,590.708 	"/>
	<polygon fill-rule="evenodd" clip-rule="evenodd" fill="#FFFFFF" points="281.142,428.048 281.142,428.048 281.35,436.611 
		282.154,444.576 282.958,452.929 284.359,460.866 286.146,468.624 288.527,476.383 291.119,483.932 294.126,491.304 
		297.313,498.647 300.917,505.81 304.908,512.38 309.286,518.95 313.872,525.311 318.458,531.671 323.641,537.439 329.031,542.998 
		335.017,548.377 340.617,553.55 346.99,558.515 353.184,563.092 359.975,567.046 366.735,571.029 373.734,574.625 380.912,577.985 
		388.297,580.779 396.071,583.365 403.874,585.743 411.438,587.526 419.419,588.922 427.789,589.725 435.77,590.53 444.347,590.708 
		444.347,584.345 436.366,584.167 428.206,583.365 420.432,582.562 412.838,581.165 405.244,579.172 397.887,577.389 
		390.501,575.011 383.711,572.039 376.534,568.651 369.952,565.47 363.161,561.696 356.758,557.503 350.593,553.342 
		344.816,548.555 339.008,543.799 333.618,538.419 328.227,533.247 323.462,527.481 318.876,521.536 314.29,515.353 310.298,509.2 
		306.486,502.63 303.3,495.881 300.113,489.104 297.105,481.763 294.514,474.598 292.727,467.228 290.732,459.468 289.54,451.917 
		288.527,444.16 287.753,436.223 287.545,428.048 287.545,428.048 281.142,428.048 	"/>
	<polygon fill-rule="evenodd" clip-rule="evenodd" fill="#FFFFFF" points="444.347,265.628 444.347,265.628 435.77,265.836 
		427.789,266.43 419.419,267.426 411.438,268.824 403.859,270.622 396.071,273.015 388.283,275.393 380.912,278.396 373.72,281.576 
		366.735,285.366 359.959,289.156 353.169,293.332 346.99,297.925 340.602,302.696 335.017,308.077 329.031,313.264 
		323.641,319.045 318.458,324.827 313.872,330.995 308.884,337.385 304.893,344.148 300.902,350.733 297.313,357.911 
		294.112,364.688 291.119,372.253 288.527,379.834 286.13,387.607 284.343,395.573 282.944,403.541 282.14,411.521 281.35,419.68 
		281.142,428.048 287.53,428.048 287.739,420.083 288.527,412.116 289.525,404.537 290.732,396.97 292.727,388.99 294.514,381.826 
		297.105,374.647 300.099,367.468 303.3,360.69 306.486,353.913 310.284,347.344 314.468,341.161 318.861,334.592 323.447,329.003 
		328.242,323.236 333.618,317.856 339.008,312.669 344.801,307.883 350.579,302.904 356.773,298.92 363.146,294.729 
		369.937,290.746 376.519,287.551 383.697,284.37 390.486,281.382 397.872,278.781 405.244,276.999 412.838,275.2 420.417,273.803 
		428.191,273.015 436.379,272.212 444.347,272.02 444.347,272.02 444.347,265.628 	"/>
	<polygon fill-rule="evenodd" clip-rule="evenodd" fill="#FFFFFF" points="641.624,428.762 641.624,428.762 641.443,418.626 
		640.848,408.697 639.449,398.947 637.84,389.405 635.458,379.655 632.658,370.5 629.65,361.375 626.254,352.427 622.474,343.658 
		617.679,335.305 613.092,326.952 608.087,319.015 602.31,311.465 596.711,303.885 590.13,296.751 583.936,289.974 576.757,283.404 
		569.966,277.043 562.374,271.276 554.809,265.925 546.41,260.753 538.429,255.967 530.03,251.598 521.245,247.822 512.279,244.047 
		503.078,241.075 493.905,238.28 484.135,236.081 474.545,234.505 464.569,233.109 454.77,232.305 444.585,232.098 444.585,238.667 
		454.384,238.875 464.152,239.469 473.534,240.867 482.736,242.442 491.909,244.85 501.291,247.02 509.869,250.022 518.475,253.797 
		527.26,257.573 535.241,261.556 543.224,266.312 550.998,271.276 558.59,276.448 565.769,282.036 572.767,287.982 579.349,294.551 
		585.542,300.913 591.529,308.077 597.306,315.032 602.52,322.583 607.702,330.132 612.288,338.485 616.487,346.452 
		620.268,354.805 623.664,363.752 626.671,372.313 629.055,381.439 631.259,390.594 633.045,399.928 634.238,409.292 
		635.042,419.041 635.25,428.762 635.25,428.762 641.624,428.762 	"/>
	<polygon fill-rule="evenodd" clip-rule="evenodd" fill="#FFFFFF" points="444.585,625.425 444.585,625.425 454.77,625.248 
		464.569,624.445 474.545,623.047 484.135,621.472 493.905,619.272 503.078,616.48 512.279,613.506 521.066,610.117 530.03,606.134 
		538.429,601.557 546.41,596.979 554.809,591.985 562.374,586.219 569.966,580.452 576.757,574.091 583.936,567.728 590.13,560.744 
		596.711,553.579 602.31,546.03 608.087,538.449 613.092,530.483 617.679,522.516 622.474,513.778 626.254,505.008 629.65,496.269 
		632.658,487.114 635.458,477.928 637.84,468.387 639.449,458.427 640.848,448.679 641.443,438.719 641.624,428.762 635.25,428.762 
		635.042,438.333 634.238,448.292 633.045,457.625 631.259,466.99 629.055,476.145 626.671,485.3 623.664,494.07 620.268,502.837 
		616.487,510.983 612.288,519.335 607.702,527.303 602.52,534.882 597.306,542.433 591.529,549.596 585.542,556.583 
		579.349,563.151 572.767,569.513 565.769,575.489 558.59,581.254 550.998,586.426 543.224,591.39 535.241,596.177 527.26,600.16 
		518.654,604.142 509.869,607.532 501.291,610.504 491.909,612.912 482.736,615.083 473.534,616.687 464.152,618.084 
		454.384,618.858 444.585,619.065 444.585,619.065 444.585,625.425 	"/>
	<polygon fill-rule="evenodd" clip-rule="evenodd" fill="#FFFFFF" points="247.548,428.762 247.548,428.762 247.756,438.719 
		248.561,448.679 249.751,458.427 251.538,468.387 253.743,477.928 256.542,487.114 259.52,496.269 262.916,505.008 
		266.906,513.778 271.492,522.516 276.079,530.483 281.052,538.449 286.86,546.03 292.638,553.579 299.011,560.744 305.384,567.728 
		312.383,574.091 319.352,580.452 326.947,586.219 334.511,591.985 342.701,596.979 350.653,601.557 359.439,606.134 
		368.224,610.117 376.802,613.506 385.975,616.48 395.326,619.272 404.916,621.472 414.684,623.047 424.662,624.445 
		434.637,625.248 444.585,625.425 444.585,619.065 435.026,618.858 425.048,618.084 415.667,616.687 406.315,615.083 
		397.143,612.912 387.97,610.504 379.184,607.532 370.399,604.142 362.239,600.16 353.869,596.177 345.887,591.39 338.293,586.426 
		330.729,581.254 323.552,575.489 316.374,569.513 309.971,563.151 303.598,556.583 297.611,549.596 291.834,542.433 
		286.651,534.882 281.469,527.303 276.883,519.335 272.893,510.983 268.902,502.837 265.506,494.07 262.528,485.3 260.116,476.145 
		257.941,466.99 256.334,457.625 254.934,448.292 254.129,438.333 253.951,428.762 253.951,428.762 247.548,428.762 	"/>
	<polygon fill-rule="evenodd" clip-rule="evenodd" fill="#FFFFFF" points="444.585,232.098 444.585,232.098 434.624,232.305 
		424.646,233.093 414.684,234.491 404.9,236.081 395.326,238.266 385.959,241.06 376.787,244.032 367.808,247.808 359.439,251.598 
		350.667,255.967 342.687,260.738 334.511,265.911 326.932,271.276 319.352,277.043 312.368,283.404 305.384,289.974 
		299.011,296.736 292.623,303.885 286.845,311.45 281.052,319 276.079,326.952 271.492,335.305 266.906,343.658 262.916,352.412 
		259.52,361.359 256.527,370.5 253.743,379.655 251.538,389.391 249.751,398.947 248.546,408.684 247.756,418.626 247.548,428.762 
		253.937,428.762 254.129,419.027 254.934,409.277 256.334,399.928 257.927,390.594 260.116,381.439 262.513,372.298 
		265.506,363.737 268.887,354.79 272.878,346.437 276.868,338.485 281.455,330.132 286.637,322.583 291.834,315.032 
		297.611,308.061 303.598,300.913 309.971,294.551 316.359,287.982 323.536,282.022 330.713,276.448 338.293,271.276 
		345.873,266.312 353.854,261.541 362.223,257.558 370.607,253.783 379.184,250.007 387.956,247.02 397.128,244.835 
		406.301,242.442 415.682,240.852 425.048,239.455 435.026,238.86 444.585,238.667 444.585,238.667 444.585,232.098 	"/>
	<polygon fill-rule="evenodd" clip-rule="evenodd" fill="#FFFFFF" points="537.504,428.762 537.504,428.762 536.91,419.25 
		535.54,409.917 533.126,401.176 530.15,392.824 526.158,384.501 521.572,376.951 516.39,369.995 510.403,363.247 503.614,357.271 
		496.436,352.129 488.872,347.344 480.681,343.391 472.104,340.388 463.14,337.832 453.965,336.434 444.585,336.018 444.585,342.38 
		453.58,342.974 461.949,344.371 470.317,346.362 478.297,349.335 485.683,352.724 492.862,357.093 499.444,362.444 
		505.818,367.795 511.208,373.978 515.973,380.726 520.558,387.681 524.164,395.023 527.142,403.168 529.136,411.312 
		530.536,419.843 530.952,428.762 530.952,428.762 537.504,428.762 	"/>
	<polygon fill-rule="evenodd" clip-rule="evenodd" fill="#FFFFFF" points="444.585,521.506 444.585,521.506 453.965,521.119 
		463.14,519.721 472.104,517.136 480.681,514.164 488.872,510.388 496.436,505.603 503.614,500.223 510.403,494.248 516.39,487.678 
		521.572,480.515 526.158,472.964 530.15,464.612 533.126,456.228 535.54,447.489 536.91,438.126 537.504,428.762 530.952,428.762 
		530.536,437.739 529.136,446.091 527.142,454.445 524.164,462.412 520.558,469.785 515.973,476.947 511.208,483.517 
		505.818,489.67 499.444,495.257 492.862,500.43 485.683,504.8 478.297,508.188 470.317,511.162 461.949,513.361 453.58,514.758 
		444.585,515.144 444.585,515.144 444.585,521.506 	"/>
	<polygon fill-rule="evenodd" clip-rule="evenodd" fill="#FFFFFF" points="351.666,428.762 351.666,428.762 352.083,438.126 
		353.482,447.489 356.074,456.228 359.052,464.612 362.833,472.964 367.42,480.515 372.811,487.678 379.005,494.248 
		385.379,500.223 392.556,505.81 400.33,510.388 408.52,514.164 417.096,517.136 425.852,519.721 435.234,521.119 444.585,521.506 
		444.585,515.144 435.622,514.758 427.252,513.361 418.883,511.162 410.902,508.188 403.516,504.8 396.16,500.223 389.579,495.257 
		383.592,489.67 377.814,483.517 373.019,476.947 368.433,469.785 365.038,462.412 362.06,454.445 359.856,446.091 358.456,437.739 
		358.069,428.762 358.069,428.762 351.666,428.762 	"/>
	<polygon fill-rule="evenodd" clip-rule="evenodd" fill="#FFFFFF" points="444.585,336.018 444.585,336.018 435.219,336.419 
		425.852,337.817 417.083,340.388 408.504,343.375 400.33,347.344 392.556,351.906 385.364,357.271 378.991,363.232 
		372.811,369.979 367.42,376.936 362.833,384.485 359.052,392.824 356.058,401.162 353.467,409.901 352.068,419.234 
		351.666,428.762 358.053,428.762 358.456,419.83 359.841,411.298 362.045,403.153 365.038,395.009 368.418,387.667 373.004,380.71 
		377.799,373.963 383.577,367.795 389.563,362.444 396.145,357.271 403.516,352.709 410.887,349.335 418.87,346.348 
		427.237,344.371 435.622,342.974 444.585,342.38 444.585,342.38 444.585,336.018 	"/>
	<polygon fill-rule="evenodd" clip-rule="evenodd" fill="#FFFFFF" points="507.247,429.475 507.247,429.475 506.859,423.261 
		506.056,416.872 504.298,411.044 502.302,405.219 499.711,399.81 496.734,394.608 492.98,389.792 489.199,385.393 484.85,381.171 
		480.084,377.575 474.933,374.573 469.156,371.749 463.795,369.965 457.869,368.152 451.704,367.141 445.54,366.933 445.54,373.354 
		451.107,373.562 456.467,374.573 462.008,375.97 466.982,377.783 471.748,380.191 476.303,383.193 480.681,386.403 484.643,390 
		488.007,394.013 491.194,398.412 494.172,403.021 496.346,407.627 498.342,412.858 499.711,418.27 500.515,423.68 500.725,429.475 
		500.725,429.475 507.247,429.475 	"/>
	<polygon fill-rule="evenodd" clip-rule="evenodd" fill="#FFFFFF" points="445.54,491.781 445.54,491.781 451.704,491.603 
		457.869,490.591 463.795,488.808 469.156,486.994 474.933,484.202 480.084,481.197 484.85,477.6 489.199,473.411 492.98,469.04 
		496.734,464.224 499.711,459.232 502.302,453.642 504.298,447.875 506.056,442.08 506.859,435.688 507.247,429.475 
		500.725,429.475 500.515,435.272 499.711,440.859 498.342,446.063 496.346,451.443 494.172,456.049 491.194,460.626 
		488.007,464.848 484.643,468.833 480.681,472.637 476.303,475.817 471.748,478.819 466.982,481.019 462.008,482.804 
		456.467,484.202 451.107,485.21 445.54,485.389 445.54,485.389 445.54,491.781 	"/>
	<polygon fill-rule="evenodd" clip-rule="evenodd" fill="#FFFFFF" points="383.115,429.475 383.115,429.475 383.533,435.688 
		384.336,442.08 386.123,447.875 388.119,453.642 390.918,459.232 393.688,464.224 397.5,469.04 401.67,473.411 406.077,477.6 
		410.843,481.197 415.846,484.202 421.415,486.994 427.014,488.808 432.792,490.591 439.374,491.603 445.54,491.781 445.54,485.389 
		439.76,485.21 434.192,484.202 429.01,482.804 423.62,481.019 419.033,478.819 414.446,475.817 410.038,472.637 406.256,468.833 
		402.474,464.848 399.287,460.626 396.279,456.049 394.105,451.443 392.109,446.063 390.918,440.859 389.906,435.272 
		389.698,429.475 389.698,429.475 383.115,429.475 	"/>
	<polygon fill-rule="evenodd" clip-rule="evenodd" fill="#FFFFFF" points="445.54,366.933 445.54,366.933 439.359,367.141 
		432.778,368.136 426.999,369.95 421.415,371.749 415.831,374.557 410.843,377.56 406.063,381.171 401.67,385.378 397.486,389.792 
		393.688,394.608 390.903,399.81 388.104,405.234 386.108,411.044 384.322,416.856 383.517,423.261 383.115,429.475 
		389.698,429.475 389.906,423.665 390.903,418.254 392.095,412.843 394.09,407.627 396.279,403.021 399.272,398.412 
		402.474,393.999 406.256,389.985 410.053,386.389 414.43,383.178 419.017,380.175 423.604,377.768 428.995,375.955 
		434.176,374.557 439.76,373.562 445.54,373.354 445.54,373.354 445.54,366.933 	"/>
	<polygon fill-rule="evenodd" clip-rule="evenodd" fill="#800000" points="805.901,617.935 800.897,621.086 796.579,623.97 
		793.063,626.793 790.592,629.379 788.507,632.025 786.87,634.552 785.47,636.901 784.844,639.397 784.309,641.507 783.921,643.828 
		783.563,645.967 783.356,648.316 782.998,650.456 782.431,652.773 781.629,655.033 780.228,657.382 784.25,656.459 
		787.673,655.418 790.891,654.379 793.362,652.983 795.893,651.198 798.007,649.564 799.765,647.454 800.957,645.253 
		802.385,642.698 803.279,639.842 803.934,636.96 804.5,633.661 805.096,630.181 805.304,626.408 805.574,622.276 805.901,617.935 	
		"/>
	<polygon fill-rule="evenodd" clip-rule="evenodd" fill="#800000" points="805.901,617.935 805.901,617.935 800.897,621.086 
		796.579,623.97 793.063,626.793 790.592,629.379 788.507,632.025 786.87,634.552 785.47,636.901 784.844,639.397 784.309,641.507 
		783.921,643.828 783.563,645.967 783.356,648.316 782.998,650.456 782.431,652.773 781.629,655.033 780.228,657.382 
		784.25,656.459 787.673,655.418 790.891,654.379 793.362,652.983 795.893,651.198 798.007,649.564 799.765,647.454 
		800.957,645.253 802.385,642.698 803.279,639.842 803.934,636.96 804.5,633.661 805.096,630.181 805.304,626.408 805.574,622.276 
		805.901,617.935 	"/>
	<polygon fill-rule="evenodd" clip-rule="evenodd" fill="#800000" points="768.733,672.274 767.512,669.568 767.421,666.18 
		767.869,662.256 768.733,658.391 769.656,654.113 770.4,649.593 770.699,645.224 770.132,641.151 763.878,645.996 758.904,650.633 
		754.824,655.033 751.638,659.136 749.136,662.702 747.26,666.418 746.068,669.778 745.085,673.196 744.519,676.702 744.58,680.063 
		744.221,683.392 744.074,686.929 744.074,690.734 743.597,694.866 742.911,698.968 741.899,703.635 747.022,701.97 751.995,700.9 
		756.79,699.799 761.317,699.057 765.666,698.106 769.626,697.065 773.825,695.667 777.458,694.152 780.882,692.427 784.25,689.813 
		787.286,686.75 790.414,683.065 793.035,678.634 795.625,673.166 797.918,666.804 800.212,659.403 794.672,663.743 
		790.145,667.012 786.274,668.886 782.879,670.43 779.842,670.965 776.416,671.471 772.962,671.946 768.733,672.274 	"/>
	<polygon fill-rule="evenodd" clip-rule="evenodd" fill="#800000" points="768.733,672.274 768.733,672.274 767.512,669.568 
		767.421,666.18 767.869,662.256 768.733,658.391 769.656,654.113 770.4,649.593 770.699,645.224 770.132,641.151 763.878,645.996 
		758.904,650.633 754.824,655.033 751.638,659.136 749.136,662.702 747.26,666.418 746.068,669.778 745.085,673.196 
		744.519,676.702 744.58,680.063 744.221,683.392 744.074,686.929 744.074,690.734 743.597,694.866 742.911,698.968 
		741.899,703.635 747.022,701.97 751.995,700.9 756.79,699.799 761.317,699.057 765.666,698.106 769.626,697.065 773.825,695.667 
		777.458,694.152 780.882,692.427 784.25,689.813 787.286,686.75 790.414,683.065 793.035,678.634 795.625,673.166 797.918,666.804 
		800.212,659.403 794.672,663.743 790.145,667.012 786.274,668.886 782.879,670.43 779.842,670.965 776.416,671.471 
		772.962,671.946 768.733,672.274 	"/>
	<polygon fill-rule="evenodd" clip-rule="evenodd" fill="#800000" points="729.897,715.436 728.736,710.559 728.706,706.933 
		729.033,703.575 729.808,700.305 730.463,696.352 730.582,691.685 730.67,685.949 729.36,678.071 722.661,684.431 716.941,690.081 
		712.385,695.073 708.751,700.007 706.042,704.437 703.838,708.539 702.348,712.344 701.247,716.208 700.681,719.746 
		700.116,723.044 699.756,726.612 699.191,729.942 698.567,733.657 697.731,737.343 696.63,741.415 694.844,745.607 700.77,745.31 
		706.488,744.983 711.759,744.595 716.792,744.359 721.825,744.328 726.68,743.853 731.326,743.347 736.062,742.426 
		740.409,741.029 744.907,739.008 749.434,736.57 754.109,733.3 758.725,729.168 763.669,724.234 768.792,718.289 774.123,711.065 
		769.239,711.75 765.01,712.313 761.227,712.759 758.101,713.296 755.361,714.127 752.888,714.573 750.595,715.257 748.808,715.584 
		746.754,716.12 744.967,716.446 742.733,716.712 740.767,716.802 738.593,716.684 736.031,716.446 733.054,715.97 729.897,715.436 
			"/>
	<polygon fill-rule="evenodd" clip-rule="evenodd" fill="#800000" points="729.897,715.436 729.897,715.436 728.736,710.559 
		728.706,706.933 729.033,703.575 729.808,700.305 730.463,696.352 730.582,691.685 730.67,685.949 729.36,678.071 722.661,684.431 
		716.941,690.081 712.385,695.073 708.751,700.007 706.042,704.437 703.838,708.539 702.348,712.344 701.247,716.208 
		700.681,719.746 700.116,723.044 699.756,726.612 699.191,729.942 698.567,733.657 697.731,737.343 696.63,741.415 
		694.844,745.607 700.77,745.31 706.488,744.983 711.759,744.595 716.792,744.359 721.825,744.328 726.68,743.853 731.326,743.347 
		736.062,742.426 740.409,741.029 744.907,739.008 749.434,736.57 754.109,733.3 758.725,729.168 763.669,724.234 768.792,718.289 
		774.123,711.065 769.239,711.75 765.01,712.313 761.227,712.759 758.101,713.296 755.361,714.127 752.888,714.573 750.595,715.257 
		748.808,715.584 746.754,716.12 744.967,716.446 742.733,716.712 740.767,716.802 738.593,716.684 736.031,716.446 733.054,715.97 
		729.897,715.436 	"/>
	<polygon fill-rule="evenodd" clip-rule="evenodd" fill="#800000" points="680.667,759.756 680.549,756.695 680.786,753.931 
		681.144,751.82 681.5,749.709 681.977,748.074 682.752,746.052 683.258,744.18 684.181,742.605 684.925,740.554 685.671,738.741 
		686.504,736.273 687.398,733.418 687.875,730.477 688.053,726.82 688.5,722.986 688.648,718.259 680.31,723.789 673.132,728.872 
		667.415,733.985 662.649,738.384 658.777,742.694 655.769,746.737 653.446,750.481 651.718,754.495 650.32,757.943 
		649.306,761.451 648.056,765.136 647.281,768.466 646.269,771.974 645.257,775.482 643.559,779.315 641.474,783.061 
		645.048,783.24 648.978,783.657 652.643,784.488 656.513,785.35 660.357,786.42 664.497,787.104 669.022,787.846 673.609,788.203 
		678.524,787.935 683.675,787.49 689.453,785.856 695.766,783.447 702.707,779.85 710.21,775.451 718.43,769.268 727.039,762.045 
		722.629,760.648 718.49,759.964 714.797,759.369 711.253,758.983 708.096,758.894 705.148,758.833 702.586,759.073 
		699.756,759.458 697.435,759.489 695.022,759.964 692.848,760.262 690.317,760.262 688.173,760.559 685.64,760.351 
		683.347,760.203 680.667,759.756 	"/>
	<polygon fill-rule="evenodd" clip-rule="evenodd" fill="#800000" points="680.667,759.756 680.667,759.756 680.549,756.695 
		680.786,753.931 681.144,751.82 681.5,749.709 681.977,748.074 682.752,746.052 683.258,744.18 684.181,742.605 684.925,740.554 
		685.671,738.741 686.504,736.273 687.398,733.418 687.875,730.477 688.053,726.82 688.5,722.986 688.648,718.259 680.31,723.789 
		673.132,728.872 667.415,733.985 662.649,738.384 658.777,742.694 655.769,746.737 653.446,750.481 651.718,754.495 
		650.32,757.943 649.306,761.451 648.056,765.136 647.281,768.466 646.269,771.974 645.257,775.482 643.559,779.315 
		641.474,783.061 645.048,783.24 648.978,783.657 652.643,784.488 656.513,785.35 660.357,786.42 664.497,787.104 669.022,787.846 
		673.609,788.203 678.524,787.935 683.675,787.49 689.453,785.856 695.766,783.447 702.707,779.85 710.21,775.451 718.43,769.268 
		727.039,762.045 722.629,760.648 718.49,759.964 714.797,759.369 711.253,758.983 708.096,758.894 705.148,758.833 
		702.586,759.073 699.756,759.458 697.435,759.489 695.022,759.964 692.848,760.262 690.317,760.262 688.173,760.559 
		685.64,760.351 683.347,760.203 680.667,759.756 	"/>
	<polygon fill-rule="evenodd" clip-rule="evenodd" fill="#800000" points="624.499,791.294 624.856,789.065 625.421,786.866 
		625.958,785.053 626.821,783.537 627.506,781.96 628.162,780.624 629.262,779.108 630.156,777.592 631.259,775.896 
		632.419,773.996 633.641,771.884 634.714,769.15 636.053,766.237 637.246,762.847 638.555,758.687 640.015,753.9 631.557,757.735 
		624.378,761.569 618.274,765.166 613.479,768.762 609.579,771.884 606.301,775.094 603.89,778.038 602.162,780.891 
		600.613,783.775 599.808,786.153 598.915,788.947 598.26,791.564 597.426,794.149 596.593,796.527 595.55,799.054 593.882,801.49 
		590.636,803.275 585.812,805.622 579.885,808.178 573.541,810.883 567.614,813.471 562.819,815.611 559.543,817.572 
		559.096,818.969 560.466,819.625 563.922,819.148 569.133,818.316 575.09,816.8 581.434,815.343 587.211,813.589 592.393,811.717 
		595.789,810.2 599.69,810.855 603.115,811.835 606.272,813.204 609.25,814.332 612.199,815.64 615.207,816.562 618.423,817.514 
		621.728,818.078 625.689,818.316 629.77,817.928 634.534,817.068 640.044,815.67 646.358,813.351 653.625,810.17 661.667,806.277 
		670.989,800.926 665.775,799.411 661.308,798.251 657.257,797.18 653.773,796.586 650.708,796.081 647.757,796.021 
		645.464,795.842 643.172,795.665 641.086,795.515 639.21,795.426 637.125,795.279 635.071,794.951 632.629,794.327 
		630.395,793.763 627.596,792.87 624.499,791.294 	"/>
	<polygon fill-rule="evenodd" clip-rule="evenodd" fill="#800000" points="624.499,791.294 624.499,791.294 624.856,789.065 
		625.421,786.866 625.958,785.053 626.821,783.537 627.506,781.96 628.162,780.624 629.262,779.108 630.156,777.592 
		631.259,775.896 632.419,773.996 633.641,771.884 634.714,769.15 636.053,766.237 637.246,762.847 638.555,758.687 640.015,753.9 
		631.557,757.735 624.378,761.569 618.274,765.166 613.479,768.762 609.579,771.884 606.301,775.094 603.89,778.038 
		602.162,780.891 600.613,783.775 599.808,786.153 598.915,788.947 598.26,791.564 597.426,794.149 596.593,796.527 595.55,799.054 
		593.882,801.49 590.636,803.275 585.812,805.622 579.885,808.178 573.541,810.883 567.614,813.471 562.819,815.611 
		559.543,817.572 559.096,818.969 560.466,819.625 563.922,819.148 569.133,818.316 575.09,816.8 581.434,815.343 587.211,813.589 
		592.393,811.717 595.789,810.2 599.69,810.855 603.115,811.835 606.272,813.204 609.25,814.332 612.199,815.64 615.207,816.562 
		618.423,817.514 621.728,818.078 625.689,818.316 629.77,817.928 634.534,817.068 640.044,815.67 646.358,813.351 653.625,810.17 
		661.667,806.277 670.989,800.926 665.775,799.411 661.308,798.251 657.257,797.18 653.773,796.586 650.708,796.081 
		647.757,796.021 645.464,795.842 643.172,795.665 641.086,795.515 639.21,795.426 637.125,795.279 635.071,794.951 
		632.629,794.327 630.395,793.763 627.596,792.87 624.499,791.294 	"/>
	<path fill="none" stroke="#800000" stroke-width="2.9957" stroke-linejoin="round" stroke-miterlimit="10" d="M619.584,794.566
		c69.034-31.094,127.08-81.985,166.689-146.161"/>
	<polygon fill-rule="evenodd" clip-rule="evenodd" fill="#800000" points="85.117,620.998 90.121,624.149 94.468,627.033 
		97.983,629.825 100.455,632.413 102.509,635.058 104.148,637.584 105.547,639.932 106.173,642.43 106.739,644.541 107.125,646.858 
		107.483,648.998 107.662,651.375 108.019,653.517 108.615,655.806 109.389,658.066 110.789,660.444 106.798,659.493 
		103.374,658.481 100.127,657.411 97.685,656.013 95.153,654.259 93.039,652.595 91.282,650.515 90.09,648.316 88.661,645.759 
		87.768,642.905 87.083,640.021 86.547,636.722 85.951,633.214 85.742,629.468 85.445,625.336 85.117,620.998 	"/>
	<polygon fill-rule="evenodd" clip-rule="evenodd" fill="#800000" points="85.117,620.998 85.117,620.998 90.121,624.149 
		94.468,627.033 97.983,629.825 100.455,632.413 102.509,635.058 104.148,637.584 105.547,639.932 106.173,642.43 106.739,644.541 
		107.125,646.858 107.483,648.998 107.662,651.375 108.019,653.517 108.615,655.806 109.389,658.066 110.789,660.444 
		106.798,659.493 103.374,658.481 100.127,657.411 97.685,656.013 95.153,654.259 93.039,652.595 91.282,650.515 90.09,648.316 
		88.661,645.759 87.768,642.905 87.083,640.021 86.547,636.722 85.951,633.214 85.742,629.468 85.445,625.336 85.117,620.998 	"/>
	<polygon fill-rule="evenodd" clip-rule="evenodd" fill="#800000" points="122.315,675.335 123.536,672.601 123.595,669.211 
		123.148,665.289 122.315,661.424 121.392,657.172 120.617,652.655 120.319,648.285 120.885,644.184 127.14,649.029 
		132.113,653.696 136.193,658.066 139.41,662.167 141.881,665.764 143.757,669.45 144.949,672.839 145.932,676.256 146.528,679.735 
		146.468,683.123 146.795,686.423 146.975,689.991 146.975,693.764 147.45,697.896 148.135,702 149.118,706.697 144.026,705.001 
		139.023,703.931 134.227,702.833 129.701,702.118 125.353,701.167 121.421,700.127 117.192,698.73 113.589,697.214 110.164,695.46 
		106.798,692.873 103.76,689.782 100.633,686.096 98.013,681.697 95.422,676.227 93.098,669.867 90.806,662.465 96.375,666.804 
		100.902,670.045 104.773,671.917 108.168,673.463 111.206,674.028 114.631,674.502 118.056,674.979 122.315,675.335 	"/>
	<polygon fill-rule="evenodd" clip-rule="evenodd" fill="#800000" points="122.315,675.335 122.315,675.335 123.536,672.601 
		123.595,669.211 123.148,665.289 122.315,661.424 121.392,657.172 120.617,652.655 120.319,648.285 120.885,644.184 
		127.14,649.029 132.113,653.696 136.193,658.066 139.41,662.167 141.881,665.764 143.757,669.45 144.949,672.839 145.932,676.256 
		146.528,679.735 146.468,683.123 146.795,686.423 146.975,689.991 146.975,693.764 147.45,697.896 148.135,702 149.118,706.697 
		144.026,705.001 139.023,703.931 134.227,702.833 129.701,702.118 125.353,701.167 121.421,700.127 117.192,698.73 
		113.589,697.214 110.164,695.46 106.798,692.873 103.76,689.782 100.633,686.096 98.013,681.697 95.422,676.227 93.098,669.867 
		90.806,662.465 96.375,666.804 100.902,670.045 104.773,671.917 108.168,673.463 111.206,674.028 114.631,674.502 118.056,674.979 
		122.315,675.335 	"/>
	<polygon fill-rule="evenodd" clip-rule="evenodd" fill="#800000" points="161.15,718.466 162.282,713.592 162.341,709.966 
		161.985,706.637 161.239,703.336 160.584,699.414 160.465,694.748 160.376,689.008 161.657,681.132 168.387,687.464 
		174.105,693.112 178.632,698.106 182.295,703.04 184.976,707.5 187.18,711.6 188.698,715.407 189.771,719.269 190.366,722.777 
		190.903,726.106 191.29,729.674 191.826,732.973 192.452,736.719 193.285,740.405 194.417,744.477 196.204,748.638 
		190.277,748.371 184.559,748.014 179.257,747.628 174.224,747.39 169.221,747.39 164.367,746.916 159.691,746.41 154.985,745.489 
		150.607,744.091 146.14,742.07 141.584,739.632 136.907,736.363 132.321,732.202 127.348,727.296 122.225,721.322 116.895,714.127 
		121.808,714.781 126.037,715.375 129.79,715.822 132.947,716.356 135.687,717.161 138.159,717.606 140.452,718.289 
		142.239,718.645 144.293,719.151 146.081,719.507 148.285,719.775 150.28,719.864 152.424,719.716 155.016,719.507 
		157.964,719.001 161.15,718.466 	"/>
	<polygon fill-rule="evenodd" clip-rule="evenodd" fill="#800000" points="161.15,718.466 161.15,718.466 162.282,713.592 
		162.341,709.966 161.985,706.637 161.239,703.336 160.584,699.414 160.465,694.748 160.376,689.008 161.657,681.132 
		168.387,687.464 174.105,693.112 178.632,698.106 182.295,703.04 184.976,707.5 187.18,711.6 188.698,715.407 189.771,719.269 
		190.366,722.777 190.903,726.106 191.29,729.674 191.826,732.973 192.452,736.719 193.285,740.405 194.417,744.477 
		196.204,748.638 190.277,748.371 184.559,748.014 179.257,747.628 174.224,747.39 169.221,747.39 164.367,746.916 159.691,746.41 
		154.985,745.489 150.607,744.091 146.14,742.07 141.584,739.632 136.907,736.363 132.321,732.202 127.348,727.296 122.225,721.322 
		116.895,714.127 121.808,714.781 126.037,715.375 129.79,715.822 132.947,716.356 135.687,717.161 138.159,717.606 
		140.452,718.289 142.239,718.645 144.293,719.151 146.081,719.507 148.285,719.775 150.28,719.864 152.424,719.716 
		155.016,719.507 157.964,719.001 161.15,718.466 	"/>
	<polygon fill-rule="evenodd" clip-rule="evenodd" fill="#800000" points="210.35,762.788 210.469,759.756 210.231,756.991 
		209.874,754.88 209.516,752.77 209.04,751.136 208.295,749.085 207.759,747.243 206.866,745.636 206.091,743.615 205.376,741.772 
		204.543,739.335 203.649,736.452 203.143,733.507 202.964,729.853 202.548,726.048 202.398,721.322 210.708,726.851 
		217.916,731.932 223.632,737.015 228.368,741.415 232.27,745.756 235.278,749.799 237.571,753.514 239.298,757.557 
		240.728,761.004 241.741,764.512 242.992,768.199 243.736,771.528 244.749,775.036 245.761,778.542 247.458,782.348 
		249.573,786.124 246,786.271 242.038,786.716 238.375,787.55 234.503,788.413 230.662,789.482 226.551,790.167 222.025,790.909 
		217.409,791.236 212.524,790.968 207.373,790.523 201.594,788.887 195.251,786.48 188.312,782.883 180.807,778.513 
		172.586,772.301 163.98,765.077 168.417,763.71 172.527,763.026 176.22,762.402 179.764,762.045 182.921,761.957 185.87,761.896 
		188.46,762.105 191.26,762.52 193.612,762.551 195.995,763.026 198.169,763.293 200.701,763.323 202.875,763.59 205.376,763.412 
		207.67,763.233 210.35,762.788 	"/>
	<polygon fill-rule="evenodd" clip-rule="evenodd" fill="#800000" points="210.35,762.788 210.35,762.788 210.469,759.756 
		210.231,756.991 209.874,754.88 209.516,752.77 209.04,751.136 208.295,749.085 207.759,747.243 206.866,745.636 206.091,743.615 
		205.376,741.772 204.543,739.335 203.649,736.452 203.143,733.507 202.964,729.853 202.548,726.048 202.398,721.322 
		210.708,726.851 217.916,731.932 223.632,737.015 228.368,741.415 232.27,745.756 235.278,749.799 237.571,753.514 
		239.298,757.557 240.728,761.004 241.741,764.512 242.992,768.199 243.736,771.528 244.749,775.036 245.761,778.542 
		247.458,782.348 249.573,786.124 246,786.271 242.038,786.716 238.375,787.55 234.503,788.413 230.662,789.482 226.551,790.167 
		222.025,790.909 217.409,791.236 212.524,790.968 207.373,790.523 201.594,788.887 195.251,786.48 188.312,782.883 
		180.807,778.513 172.586,772.301 163.98,765.077 168.417,763.71 172.527,763.026 176.22,762.402 179.764,762.045 182.921,761.957 
		185.87,761.896 188.46,762.105 191.26,762.52 193.612,762.551 195.995,763.026 198.169,763.293 200.701,763.323 202.875,763.59 
		205.376,763.412 207.67,763.233 210.35,762.788 	"/>
	<polygon fill-rule="evenodd" clip-rule="evenodd" fill="#800000" points="266.549,794.356 266.162,792.127 265.596,789.899 
		265.09,788.114 264.195,786.569 263.511,785.023 262.855,783.657 261.784,782.169 260.89,780.653 259.758,778.929 258.597,777.057 
		257.406,774.947 256.304,772.181 254.994,769.268 253.802,765.91 252.461,761.718 251.032,756.933 259.49,760.766 266.667,764.602 
		272.743,768.199 277.568,771.795 281.469,774.916 284.746,778.156 287.128,781.1 288.885,783.953 290.404,786.836 291.238,789.214 
		292.101,791.978 292.757,794.594 293.621,797.18 294.425,799.558 295.497,802.116 297.165,804.552 300.411,806.306 
		305.235,808.655 311.133,811.241 317.506,813.946 323.433,816.531 328.197,818.642 331.503,820.634 331.92,822.002 330.55,822.656 
		327.095,822.18 321.913,821.378 315.958,819.861 309.583,818.405 303.806,816.621 298.654,814.779 295.229,813.233 
		291.327,813.886 287.902,814.869 284.746,816.235 281.768,817.365 278.819,818.702 275.811,819.625 272.595,820.574 
		269.319,821.111 265.357,821.347 261.278,820.991 256.482,820.099 250.972,818.702 244.689,816.413 237.393,813.233 
		229.381,809.308 220.03,803.958 225.271,802.473 229.708,801.312 233.759,800.213 237.243,799.647 240.34,799.143 243.259,799.054 
		245.553,798.875 247.845,798.726 249.96,798.578 251.836,798.488 253.921,798.34 255.976,797.984 258.388,797.389 260.622,796.794 
		263.421,795.932 266.549,794.356 	"/>
	<polygon fill-rule="evenodd" clip-rule="evenodd" fill="#800000" points="266.549,794.356 266.549,794.356 266.162,792.127 
		265.596,789.899 265.09,788.114 264.195,786.569 263.511,785.023 262.855,783.657 261.784,782.169 260.89,780.653 259.758,778.929 
		258.597,777.057 257.406,774.947 256.304,772.181 254.994,769.268 253.802,765.91 252.461,761.718 251.032,756.933 259.49,760.766 
		266.667,764.602 272.743,768.199 277.568,771.795 281.469,774.916 284.746,778.156 287.128,781.1 288.885,783.953 290.404,786.836 
		291.238,789.214 292.101,791.978 292.757,794.594 293.621,797.18 294.425,799.558 295.497,802.116 297.165,804.552 
		300.411,806.306 305.235,808.655 311.133,811.241 317.506,813.946 323.433,816.531 328.197,818.642 331.503,820.634 
		331.92,822.002 330.55,822.656 327.095,822.18 321.913,821.378 315.958,819.861 309.583,818.405 303.806,816.621 298.654,814.779 
		295.229,813.233 291.327,813.886 287.902,814.869 284.746,816.235 281.768,817.365 278.819,818.702 275.811,819.625 
		272.595,820.574 269.319,821.111 265.357,821.347 261.278,820.991 256.482,820.099 250.972,818.702 244.689,816.413 
		237.393,813.233 229.381,809.308 220.03,803.958 225.271,802.473 229.708,801.312 233.759,800.213 237.243,799.647 240.34,799.143 
		243.259,799.054 245.553,798.875 247.845,798.726 249.96,798.578 251.836,798.488 253.921,798.34 255.976,797.984 258.388,797.389 
		260.622,796.794 263.421,795.932 266.549,794.356 	"/>
	<path fill="none" stroke="#800000" stroke-width="2.9957" stroke-linejoin="round" stroke-miterlimit="10" d="M271.433,797.596
		c-69.005-31.063-127.05-81.982-166.66-146.16"/>
</g>
</svg>
